<svg xmlns:xlink="http://www.w3.org/1999/xlink" xmlns="http://www.w3.org/2000/svg" width="160" height="160" viewBox="0 0 160 160" fill="none">
<g clip-path="url(#clip0_600_83140)">
<mask id="mask0_600_83140" style="mask-type:luminance" maskUnits="userSpaceOnUse" x="16" y="8" width="128" height="127">
<path d="M143.693 8.15137H16.3047V134.521H143.693V8.15137Z" fill="white"/>
</mask>
<g mask="url(#mask0_600_83140)">
<mask id="mask1_600_83140" style="mask-type:luminance" maskUnits="userSpaceOnUse" x="16" y="8" width="128" height="127">
<path d="M143.693 8.15137H16.3047V134.521H143.693V8.15137Z" fill="white"/>
</mask>
<g mask="url(#mask1_600_83140)">
<path d="M31.702 130.878C31.702 130.878 31.8115 130.977 31.8911 130.937C31.9707 130.898 31.9508 130.799 31.8911 130.72C31.8024 130.41 31.7914 130.084 31.8591 129.769C31.9267 129.454 32.071 129.16 32.2793 128.913L36.9071 123.296C37.3461 122.791 37.6689 122.197 37.8528 121.556C38.0367 120.915 38.0774 120.242 37.9719 119.584C37.8173 118.528 37.2836 117.564 36.4692 116.869C36.0412 116.493 35.5934 116.148 35.1555 115.792C34.4588 115.23 33.7522 114.677 33.0555 114.104C32.0603 113.344 31.1447 112.564 30.1992 111.794C30.1395 111.794 30.0798 111.676 29.9902 111.794C29.9007 111.912 29.9902 111.922 29.9902 111.991C30.0793 112.303 30.0896 112.632 30.0202 112.949C29.9508 113.266 29.8038 113.561 29.5922 113.808C29.4329 114.015 29.2538 114.223 29.0846 114.43L25.4918 118.725C25.0955 119.157 24.7423 119.627 24.4369 120.127C24.096 120.732 23.905 121.408 23.8796 122.101C23.8318 122.428 23.8318 122.761 23.8796 123.088C24.0449 124.17 24.6 125.156 25.4421 125.862C26.225 126.521 27.0212 127.179 27.8306 127.837C28.3879 128.271 28.9353 128.716 29.4827 129.16L31.702 130.878Z" fill="#FAA22E"/>
<path d="M22.8841 112.041C22.8841 112.041 22.9538 112.1 23.0036 112.041C23.0533 111.982 23.0036 111.972 23.0036 111.922C22.9588 111.752 22.9563 111.573 22.9961 111.401C23.036 111.229 23.117 111.069 23.2325 110.935L25.8897 107.697C26.1452 107.407 26.333 107.064 26.4396 106.694C26.5463 106.324 26.5692 105.935 26.5067 105.555C26.4173 104.945 26.11 104.388 25.6409 103.985C25.402 103.768 25.1333 103.57 24.8845 103.373L23.6704 102.385L22.0481 101.043C22.0481 101.043 21.9785 100.974 21.9287 101.043C21.879 101.112 21.9287 101.112 21.9287 101.151C21.982 101.332 21.989 101.524 21.9491 101.708C21.9091 101.893 21.8234 102.064 21.6998 102.208L21.4112 102.563C20.7145 103.402 20.0179 104.242 19.3312 105.091C19.0984 105.337 18.8947 105.608 18.7241 105.9C18.5286 106.245 18.4194 106.631 18.4056 107.026C18.3804 107.206 18.3804 107.388 18.4056 107.569C18.4933 108.194 18.8126 108.764 19.3013 109.168C19.7492 109.553 20.2169 109.928 20.6747 110.293L21.67 111.063L22.8841 112.041Z" fill="#FAA22E"/>
<path d="M43.5861 102.178L44.5017 99.7692C44.5623 99.6128 44.6534 99.4699 44.7697 99.3485C44.8861 99.2271 45.0255 99.1297 45.1799 99.0618C45.3343 98.994 45.5006 98.957 45.6695 98.953C45.8383 98.949 46.0062 98.9781 46.1637 99.0386C49.5839 100.376 53.2168 101.098 56.8922 101.171C57.0922 101.167 57.2904 101.211 57.4694 101.299C58.3177 99.6512 59.2822 98.0644 60.3556 96.5507C62.137 94.3689 69.6609 89.4918 69.6609 89.4918L86.9678 88.6526L84.2011 101.487L97.4973 86.066L124.06 98.3673C128.842 90.1812 131.279 80.8543 131.107 71.3944C130.934 61.9344 128.159 52.701 123.081 44.6918C118.004 36.6826 110.816 30.2021 102.295 25.9504C93.7749 21.6988 84.2451 19.8376 74.7358 20.568C65.2264 21.2984 56.0991 24.5927 48.3398 30.0948C40.5805 35.597 34.4844 43.0978 30.71 51.7869C26.9357 60.4761 25.6266 70.0232 26.9242 79.3967C28.2217 88.7703 32.0767 97.6139 38.0725 104.972C39.3905 103.978 40.9239 103.302 42.551 102.998C42.7719 102.96 42.9793 102.866 43.1535 102.726C43.3277 102.586 43.4629 102.404 43.5463 102.198" fill="#FAA22E"/>
<path d="M84.2097 101.536L86.9764 88.702L69.6496 89.5412C69.6496 89.5412 62.0859 94.3689 60.3443 96.5507C59.2709 98.0644 58.3064 99.6512 57.4581 101.299C57.7161 101.43 57.921 101.644 58.0388 101.907C58.1565 102.169 58.1799 102.463 58.105 102.741L57.4681 105.229C57.3838 105.534 57.4231 105.86 57.5776 106.137C58.2444 107.351 59.8566 111.33 56.7117 117.54C56.5755 117.794 56.3568 117.994 56.0912 118.109C55.8256 118.223 55.5287 118.246 55.2487 118.172L53.1289 117.609C65.1247 124.302 79.2961 126.035 92.5714 122.433C105.847 118.831 117.156 110.185 124.048 98.3673L97.4959 86.066L84.2097 101.536Z" fill="#FAA22E"/>
</g>
<mask id="mask2_600_83140" style="mask-type:luminance" maskUnits="userSpaceOnUse" x="53" y="86" width="72" height="39">
<path d="M84.2058 101.536L86.9725 88.702L66.2818 89.6892C66.2818 89.6892 62.1218 94.3985 60.3105 96.6001C59.2371 98.1137 58.2727 99.7005 57.4244 101.349C57.6789 101.471 57.8842 101.675 58.0071 101.928C58.1299 102.181 58.1631 102.467 58.1011 102.741L57.4642 105.229C57.3799 105.534 57.4192 105.86 57.5736 106.137C58.2404 107.351 59.8527 111.33 56.7078 117.54C56.5716 117.793 56.3529 117.994 56.0873 118.109C55.8217 118.223 55.5248 118.246 55.2448 118.172L53.125 117.609C65.1208 124.302 79.2922 126.035 92.5675 122.433C105.843 118.831 117.152 110.185 124.045 98.3673L97.492 86.066L84.2058 101.536Z" fill="white"/>
</mask>
<g mask="url(#mask2_600_83140)">
<path d="M124.066 86.066H53.1367V124.273H124.066V86.066Z" fill="url(#paint0_linear_600_83140)"/>
</g>
<mask id="mask3_600_83140" style="mask-type:luminance" maskUnits="userSpaceOnUse" x="16" y="8" width="128" height="127">
<path d="M143.693 8.15137H16.3047V134.521H143.693V8.15137Z" fill="white"/>
</mask>
<g mask="url(#mask3_600_83140)">
<path d="M51.4432 116.642C51.4432 116.247 51.4432 115.832 51.4432 115.348C51.5129 113.008 54.8071 106.127 57.4146 101.299C57.2355 101.211 57.0374 101.167 56.8373 101.171C53.1787 101.092 49.5632 100.37 46.1586 99.0386C45.8418 98.9195 45.4903 98.9295 45.1808 99.0663C44.8714 99.2032 44.629 99.4558 44.5065 99.7692L43.5909 102.178C43.5076 102.385 43.3724 102.566 43.1982 102.706C43.024 102.846 42.8166 102.94 42.5957 102.978C40.9685 103.282 39.4352 103.958 38.1172 104.952C41.8733 109.569 46.397 113.516 51.493 116.622" fill="#FAA22E"/>
<path d="M56.7378 117.54C59.8827 111.33 58.2704 107.351 57.6036 106.137C57.4492 105.86 57.4099 105.534 57.4941 105.229L58.1012 102.741C58.1758 102.46 58.1489 102.162 58.0253 101.899C57.9017 101.636 57.6891 101.424 57.4245 101.299C54.7772 106.127 51.4531 113.008 51.4531 115.348C51.4531 115.832 51.4531 116.256 51.4531 116.642C52.0104 116.977 52.5777 117.293 53.145 117.629L55.2847 118.192C55.5647 118.265 55.8616 118.243 56.1272 118.128C56.3928 118.014 56.6115 117.813 56.7477 117.56" fill="#FAA22E"/>
</g>
<mask id="mask4_600_83140" style="mask-type:luminance" maskUnits="userSpaceOnUse" x="51" y="101" width="8" height="18">
<path d="M51.4453 115.348C51.4453 115.832 51.4453 116.247 51.4453 116.642C52.0026 116.977 52.5699 117.293 53.1372 117.629L55.2769 118.192C55.5569 118.265 55.8538 118.243 56.1194 118.128C56.385 118.014 56.6037 117.813 56.7399 117.56C59.8848 111.35 58.2725 107.371 57.6057 106.157C57.4513 105.88 57.412 105.554 57.4963 105.249L58.1034 102.741C58.1779 102.46 58.151 102.162 58.0274 101.899C57.9038 101.636 57.6913 101.424 57.4266 101.299C54.7793 106.127 51.4553 113.008 51.4553 115.348" fill="white"/>
</mask>
<g mask="url(#mask4_600_83140)">
<path d="M59.883 101.299H51.4336V118.33H59.883V101.299Z" fill="url(#paint1_linear_600_83140)"/>
</g>
<mask id="mask5_600_83140" style="mask-type:luminance" maskUnits="userSpaceOnUse" x="16" y="8" width="128" height="127">
<path d="M143.693 8.15137H16.3047V134.521H143.693V8.15137Z" fill="white"/>
</mask>
<g mask="url(#mask5_600_83140)">
<path d="M86.7249 84.2495C86.7249 84.2495 87.2026 84.7826 87.1031 87.4284C87.0121 89.6623 86.2496 91.8181 84.9136 93.6186L84.207 94.6058V102.928L101.653 93.4804L96.916 76.9339" fill="#FBC1A4"/>
<path d="M63.328 47.2765C61.7873 52.4501 59.0625 57.2006 55.3662 61.1574C49.2456 67.5845 44.6974 81.8899 56.6202 88.4552C68.5429 95.0205 87.0242 88.6526 87.0242 88.6526L87.1934 88.001C87.3952 87.1642 87.4789 86.3037 87.4422 85.444L87.3925 84.2791" fill="#0A1C40"/>
</g>
<mask id="mask6_600_83140" style="mask-type:luminance" maskUnits="userSpaceOnUse" x="88" y="9" width="38" height="39">
<path d="M121.053 10.0667L90.4202 23.0492C89.962 23.2452 89.5637 23.5569 89.2647 23.9532C88.9658 24.3495 88.7767 24.8165 88.7163 25.3078C88.6559 25.7991 88.7263 26.2976 88.9205 26.7535C89.1147 27.2094 89.4258 27.607 89.823 27.9065L114.923 46.6645C115.313 46.9554 115.773 47.1421 116.257 47.2067C116.741 47.2712 117.234 47.2115 117.688 47.0332C118.142 46.855 118.543 46.5641 118.852 46.1884C119.16 45.8127 119.367 45.3647 119.451 44.8874L124.984 13.1469C125.075 12.6398 125.025 12.1178 124.839 11.637C124.653 11.1562 124.338 10.7347 123.929 10.418C123.519 10.1013 123.031 9.90118 122.515 9.83928C122 9.77737 121.477 9.85599 121.003 10.0667" fill="white"/>
</mask>
<g mask="url(#mask6_600_83140)">
<path d="M92.078 -2.15069L75.457 43.4339L120.717 59.6736L137.338 14.089L92.078 -2.15069Z" fill="url(#paint2_linear_600_83140)"/>
</g>
<mask id="mask7_600_83140" style="mask-type:luminance" maskUnits="userSpaceOnUse" x="16" y="8" width="128" height="127">
<path d="M143.693 8.15137H16.3047V134.521H143.693V8.15137Z" fill="white"/>
</mask>
<g mask="url(#mask7_600_83140)">
<path d="M65.8992 47.5036C65.8992 47.5036 60.9231 63.9119 69.4323 77.7335C77.9414 91.5552 88.5704 84.0026 88.5704 84.0026L100.274 77.3682L111.849 59.1138L98.0449 31.8456L65.8992 47.5036Z" fill="#FBC1A4"/>
<path d="M98.504 35.8539C98.504 35.8539 92.3336 49.2313 70.16 50.1889C56.9335 50.7616 50.8427 48.0959 48.086 45.8549C47.8533 45.6712 47.679 45.4247 47.5843 45.145C47.4895 44.8654 47.4783 44.5645 47.5519 44.2787C47.6255 43.9929 47.7809 43.7342 47.9992 43.5339C48.2176 43.3336 48.4896 43.2002 48.7826 43.1498C51.42 42.7351 55.9383 40.9778 62.6461 35.0838C74.4096 24.7571 86.1632 15.3386 98.4741 27.0574C110.785 38.7762 98.4741 35.8539 98.4741 35.8539" fill="#0A1C40"/>
<path d="M93.8711 33.1784C93.8711 33.1784 94.8663 56.1224 106.013 64.7214C117.159 73.3205 116.612 42.7055 116.612 42.7055C116.612 42.7055 111.845 28.0151 93.8711 26.4848" fill="#0A1C40"/>
<path d="M119.51 98.3772C119.51 98.3772 102.313 97.6663 95.9933 86.145C94.137 82.8403 93.3549 79.0475 93.754 75.2851C94.2715 71.0695 96.66 68.1768 99.2576 64.9979C101.367 62.3915 101.387 60.3873 100.024 57.3268C97.5657 51.7784 98.5012 27.008 98.5012 27.008C98.5012 27.008 118.953 27.008 121.242 53.3975C122.237 64.5042 125.034 64.1587 131.264 67.4956C144.331 74.5052 146.919 84.0224 138.231 99.6705C136.492 102.805 134.258 105.641 131.612 108.072C131.407 108.257 131.152 108.38 130.879 108.424C130.605 108.469 130.324 108.433 130.07 108.323C129.816 108.212 129.6 108.03 129.448 107.8C129.296 107.57 129.215 107.301 129.214 107.026C129.303 103.313 131.682 98.1402 119.54 98.3278" fill="#0A1C40"/>
<path d="M79.6525 74.1596C79.6525 74.1596 78.8962 79.2045 82.6382 79.0959C86.3802 78.9873 88.1318 73.0342 87.9328 70.023C87.9328 70.023 82.9567 75.058 79.6923 74.1695" fill="#ED1F2F"/>
<path d="M82.478 80.0733C81.9676 80.0921 81.4592 80.0002 80.9883 79.8042C80.5173 79.6081 80.0951 79.3125 79.7511 78.938C78.2284 77.2399 78.6165 74.3373 78.6663 74.0017C78.6865 73.8626 78.7364 73.7294 78.8127 73.6111C78.8889 73.4927 78.9898 73.3918 79.1085 73.3152C79.2272 73.2385 79.361 73.1879 79.501 73.1667C79.641 73.1455 79.7839 73.1541 79.9203 73.1921C82.0799 73.7845 85.9812 70.5068 87.1755 69.3122C87.3093 69.1737 87.4809 69.0769 87.6692 69.0336C87.8576 68.9902 88.0546 69.0023 88.2362 69.0683C88.4178 69.1343 88.5761 69.2513 88.6917 69.4051C88.8073 69.5588 88.8753 69.7427 88.8872 69.9341C88.9977 72.9621 88.0247 75.9313 86.1404 78.316C85.7086 78.8301 85.1747 79.2505 84.5721 79.5512C83.9694 79.8518 83.3108 80.0262 82.6372 80.0634H82.478M80.5871 75.2851C80.5363 76.1252 80.7672 76.9583 81.2439 77.6545C81.4077 77.8358 81.6147 77.9732 81.846 78.0543C82.0773 78.1354 82.3254 78.1575 82.5676 78.1185C82.9729 78.0914 83.368 77.9808 83.7278 77.7938C84.0876 77.6068 84.4043 77.3476 84.6575 77.0326C85.7223 75.6883 86.4275 74.099 86.7077 72.4122C85.1054 73.6857 82.7268 75.216 80.5871 75.2851Z" fill="#0A1C40"/>
<path d="M91.3866 54.1577C91.1421 54.1595 90.9055 54.0719 90.722 53.9116C90.5384 53.7514 90.4208 53.5297 90.3914 53.2889C90.3262 52.6461 90.0377 52.0458 89.5753 51.5908C89.4858 51.5908 89.2668 51.4033 88.7294 51.5908C88.6065 51.6362 88.4759 51.6571 88.3449 51.6524C88.2139 51.6477 88.0851 51.6175 87.9659 51.5634C87.8466 51.5093 87.7393 51.4324 87.6501 51.3372C87.5608 51.242 87.4913 51.1302 87.4456 51.0084C87.3998 50.8865 87.3787 50.7569 87.3835 50.6269C87.3882 50.497 87.4187 50.3692 87.4733 50.2509C87.5278 50.1327 87.6053 50.0262 87.7012 49.9377C87.7972 49.8491 87.9099 49.7802 88.0327 49.7348C88.4447 49.5584 88.8927 49.4808 89.3406 49.5083C89.7884 49.5357 90.2234 49.6674 90.6104 49.8927C91.1081 50.2752 91.5219 50.7544 91.8265 51.301C92.1311 51.8477 92.3201 52.4502 92.3819 53.0717C92.3971 53.2008 92.3865 53.3315 92.3507 53.4565C92.3149 53.5815 92.2546 53.6982 92.1733 53.8C92.0919 53.9018 91.9911 53.9867 91.8766 54.0498C91.7621 54.1128 91.6362 54.1529 91.5061 54.1676H91.3866" fill="#0B1C3F"/>
<path d="M76.6391 70.0526H76.4798C73.6733 69.6084 71.872 68.4434 71.5037 66.8539C71.4142 66.4294 71.1355 65.1262 76.1912 60.4564C76.3871 60.2989 76.6359 60.221 76.8874 60.2384C77.1389 60.2559 77.3744 60.3673 77.5463 60.5504C77.7181 60.7334 77.8136 60.9743 77.8133 61.2244C77.813 61.4745 77.717 61.7152 77.5447 61.8978C75.5543 63.7736 73.7032 65.8469 73.4842 66.538C73.6833 67.081 74.7581 67.7819 76.7585 68.0979C77.0225 68.1188 77.2672 68.2429 77.4389 68.4429C77.6106 68.6428 77.6952 68.9023 77.6741 69.1641C77.653 69.4259 77.5279 69.6687 77.3263 69.8391C77.1247 70.0094 76.8632 70.0933 76.5993 70.0724" fill="#0A1C40"/>
<path d="M88.4632 59.094C87.9357 60.8415 86.7315 62.0558 85.786 61.7498C84.8406 61.4437 84.4823 59.7752 85.0098 58.0673C85.5372 56.3593 86.7315 55.1055 87.6869 55.4214C88.6423 55.7373 88.9906 57.3466 88.4632 59.094Z" fill="#0B1C3F"/>
<path d="M69.65 52.203C69.4914 52.1998 69.3352 52.1628 69.1922 52.0944C69.0758 52.0349 68.9722 51.9532 68.8877 51.854C68.8031 51.7548 68.739 51.6399 68.6993 51.5161C68.6595 51.3923 68.6448 51.2619 68.656 51.1324C68.6671 51.0029 68.7039 50.8769 68.7643 50.7616C69.0453 50.2028 69.4368 49.7059 69.9156 49.3005C70.3944 48.8951 70.9505 48.5895 71.5509 48.402C71.9928 48.3236 72.4472 48.3508 72.8764 48.4813C73.3056 48.6118 73.6973 48.8418 74.0191 49.1523C74.1192 49.2374 74.2012 49.3413 74.2605 49.4581C74.3197 49.5749 74.355 49.7022 74.3643 49.8326C74.3735 49.9631 74.3566 50.094 74.3144 50.2179C74.2722 50.3417 74.2057 50.4561 74.1186 50.5542C73.9456 50.7518 73.7007 50.8732 73.4376 50.8917C73.1744 50.9102 72.9147 50.8243 72.7153 50.653C72.2774 50.2778 72.0286 50.3272 71.9291 50.3469C71.3519 50.4555 70.7448 51.2848 70.5358 51.6698C70.4517 51.8308 70.3246 51.9657 70.1684 52.0597C70.0121 52.1538 69.8328 52.2033 69.65 52.203Z" fill="#0B1C3F"/>
<path d="M75.6296 57.8896C75.443 57.8899 75.2602 57.8383 75.1018 57.7405C74.9434 57.6428 74.8159 57.5029 74.7339 57.3367C74.4453 56.7641 73.9775 56.0533 73.3704 55.9644C73.0377 55.9735 72.7103 56.049 72.4076 56.1864C72.105 56.3238 71.8333 56.5203 71.6089 56.7641C71.5164 56.8566 71.4063 56.9301 71.285 56.9802C71.1637 57.0303 71.0336 57.0561 70.9023 57.0561C70.7709 57.0561 70.6408 57.0303 70.5195 56.9802C70.3982 56.9301 70.2882 56.8566 70.1957 56.7641C70.0103 56.5791 69.9062 56.3289 69.9062 56.0681C69.9062 55.8072 70.0103 55.557 70.1957 55.3721C70.6383 54.8948 71.182 54.5207 71.7877 54.2766C72.3934 54.0325 73.0461 53.9245 73.6988 53.9603C74.3449 54.1015 74.9453 54.4002 75.4457 54.8294C75.9461 55.2586 76.3309 55.8048 76.5651 56.4185C76.6244 56.5357 76.6596 56.6633 76.6686 56.7941C76.6777 56.9248 76.6604 57.0561 76.6178 57.1801C76.5752 57.3042 76.5081 57.4186 76.4204 57.5167C76.3328 57.6147 76.2263 57.6945 76.1073 57.7514C75.9708 57.8169 75.821 57.8507 75.6694 57.8501" fill="#0B1C3F"/>
<path d="M46.3503 99.473C46.3503 99.473 40.6974 96.1854 40.3292 89.8966C39.9609 83.6077 42.2499 84.5358 42.2499 84.5358C42.2499 84.5358 43.8323 79.9055 47.1265 81.031C47.2288 80.5785 47.422 80.1512 47.6947 79.7746C47.9674 79.398 48.3139 79.0798 48.7135 78.8392C49.1131 78.5987 49.5575 78.4405 50.0202 78.3744C50.4828 78.3082 50.9542 78.3354 51.406 78.4542C51.928 77.3648 52.5476 76.324 53.2571 75.3444C55.8845 72.5405 59.3379 72.5899 61.7464 75.4628C63.7368 77.8717 62.4729 78.7405 61.8558 79.2539C61.2388 79.7673 59.3479 78.3654 58.8702 78.701C58.2471 79.2852 57.7773 80.0114 57.5015 80.8166C57.2258 81.6218 57.1524 82.4817 57.2878 83.3214C57.6261 85.9377 57.7058 86.5991 59.1787 87.5568C60.6516 88.5144 56.3224 103.353 56.3224 103.353" fill="#FBC0A4"/>
<path d="M57.2619 86.7867C57.2619 86.7867 60.4566 88.7612 61.7603 86.2832C63.0641 83.8052 62.4371 81.6628 64.0892 81.1001C66.5772 80.251 66.5772 83.1931 65.9303 86.6386C65.2834 90.0842 65.174 100.075 57.1127 101.448C57.1127 101.448 49.0812 94.8724 57.2719 86.7867" fill="#FBC0A4"/>
<path d="M79.0019 102.77C78.8652 102.768 78.7314 102.731 78.6137 102.662L74.3144 99.9667C74.22 99.9087 74.1409 99.8291 74.0838 99.7347C74.0267 99.6402 73.9931 99.5336 73.986 99.4237C73.9757 99.3132 73.992 99.2019 74.0335 99.099C74.075 98.996 74.1406 98.9043 74.2248 98.8313L76.5735 96.7877L73.0903 95.3561C72.9825 95.311 72.8874 95.2408 72.8129 95.1514C72.7384 95.0621 72.6867 94.9562 72.6623 94.8428C72.6362 94.7295 72.6389 94.6115 72.6702 94.4995C72.7014 94.3874 72.7603 94.2849 72.8414 94.201L77.3996 89.4227C77.5343 89.2971 77.7123 89.2271 77.8972 89.2271C78.0821 89.2271 78.2601 89.2971 78.3948 89.4227C78.5237 89.5552 78.5958 89.7322 78.5958 89.9163C78.5958 90.1005 78.5237 90.2775 78.3948 90.41L74.5632 94.4281L78.146 95.8991C78.2597 95.9449 78.3598 96.0188 78.4364 96.1139C78.5131 96.209 78.5639 96.322 78.5839 96.4421C78.6027 96.5625 78.5918 96.6857 78.5519 96.8009C78.512 96.9162 78.4444 97.0201 78.355 97.1036L75.847 99.2756L79.3104 101.457C79.433 101.539 79.5276 101.655 79.5818 101.792C79.6359 101.928 79.647 102.077 79.6135 102.22C79.58 102.362 79.5035 102.491 79.3943 102.59C79.285 102.688 79.1481 102.751 79.0019 102.77Z" fill="#0A1C40"/>
<path d="M89.8811 106.246C89.6981 106.255 89.5185 106.194 89.3793 106.076C89.2402 105.957 89.1519 105.791 89.1328 105.61C89.1137 105.429 89.1651 105.248 89.2766 105.104C89.388 104.959 89.5509 104.863 89.7319 104.834L98.7983 102.859L97.1164 100.085C97.058 99.9809 97.0274 99.8637 97.0274 99.7445C97.0274 99.6253 97.058 99.5081 97.1164 99.4039C97.1717 99.2975 97.2522 99.206 97.351 99.1372C97.4498 99.0684 97.564 99.0244 97.6837 99.009L105.745 98.1501L105.108 92.967C105.084 92.8684 105.082 92.766 105.101 92.6665C105.12 92.5669 105.159 92.4724 105.218 92.3892C105.276 92.3059 105.351 92.2357 105.438 92.1833C105.526 92.1308 105.623 92.0972 105.725 92.0846C105.826 92.072 105.929 92.0808 106.027 92.1103C106.124 92.1399 106.215 92.1895 106.292 92.256C106.369 92.3225 106.431 92.4043 106.474 92.4962C106.517 92.5881 106.54 92.688 106.541 92.7893L107.258 98.7128C107.271 98.8056 107.265 98.9 107.239 98.9901C107.213 99.0802 107.169 99.164 107.108 99.2361C107.05 99.3114 106.977 99.3739 106.893 99.4198C106.809 99.4657 106.716 99.4939 106.621 99.5026L98.9576 100.322L100.58 102.998C100.637 103.095 100.671 103.205 100.678 103.318C100.684 103.431 100.664 103.544 100.618 103.648C100.573 103.752 100.503 103.844 100.415 103.916C100.327 103.988 100.223 104.039 100.112 104.064L90.0404 106.236H89.8811" fill="#0A1C40"/>
<path d="M47.2874 85.9377C46.0491 85.9738 44.8158 85.7675 43.658 85.3304C42.5002 84.8934 41.4406 84.2342 40.5398 83.3905C39.6178 82.5052 38.9131 81.4217 38.48 80.2235C38.0469 79.0253 37.897 77.7445 38.0418 76.4797C38.1462 75.4739 38.4951 74.5083 39.0585 73.6658C39.6218 72.8232 40.3829 72.1288 41.2763 71.6421C42.4663 71.0833 43.7664 70.7935 45.083 70.7935C46.3996 70.7935 47.6998 71.0833 48.8897 71.6421C49.7116 71.9888 50.4353 72.53 50.9975 73.2185C51.5596 73.907 51.9431 74.7216 52.1143 75.5912C52.2881 76.4648 52.1987 77.3699 51.8571 78.1933C51.5155 79.0168 50.9368 79.7222 50.1935 80.2214C49.5158 80.7338 48.7102 81.0532 47.8633 81.1454C47.0163 81.2376 46.1601 81.0991 45.3865 80.7447C44.8152 80.4272 44.3487 79.9526 44.0432 79.378C43.7377 78.8034 43.6063 78.1534 43.6648 77.5064C43.6833 77.0692 43.8761 76.6571 44.2009 76.3609C44.5256 76.0646 44.9557 75.9085 45.3965 75.9268C45.8373 75.9452 46.2527 76.1364 46.5513 76.4586C46.8499 76.7807 47.0073 77.2074 46.9889 77.6447C46.9719 77.7227 46.9719 77.8035 46.9889 77.8816C47.4157 77.9262 47.8443 77.8138 48.1931 77.5657C48.4203 77.4411 48.6033 77.2501 48.7173 77.0187C48.8312 76.7873 48.8706 76.5267 48.83 76.2724C48.7479 75.9213 48.5782 75.5963 48.3365 75.3272C48.0948 75.0581 47.7888 74.8535 47.4467 74.7322C46.7362 74.4019 45.9645 74.2209 45.1801 74.2005C44.3957 74.1801 43.6155 74.3208 42.8885 74.6138C42.4578 74.8535 42.0923 75.1936 41.8236 75.6046C41.5548 76.0157 41.3909 76.4854 41.3459 76.9733C41.2688 77.7174 41.3611 78.4693 41.616 79.1733C41.871 79.8773 42.282 80.5155 42.8189 81.0408C45.9737 84.0026 50.7209 82.3539 54.9108 80.9224L70.9638 75.4134C71.1772 75.2923 71.4148 75.2193 71.6599 75.1997C71.905 75.18 72.1514 75.2143 72.3816 75.2999C72.6118 75.3856 72.8201 75.5205 72.9917 75.6952C73.1633 75.8698 73.294 76.0799 73.3744 76.3104C73.4548 76.5408 73.483 76.7861 73.457 77.0286C73.4309 77.2711 73.3513 77.5049 73.2237 77.7134C73.0962 77.9219 72.9238 78.0999 72.719 78.2348C72.5142 78.3697 72.2818 78.4581 72.0386 78.4937L55.9956 83.9927C53.428 84.8714 50.3229 85.9673 47.2874 85.9673" fill="#8CC63F"/>
</g>
<mask id="mask8_600_83140" style="mask-type:luminance" maskUnits="userSpaceOnUse" x="55" y="71" width="10" height="10">
<path d="M56.4721 71.2176L55.875 79.0861L64.4339 80.567V71.2176H56.4721Z" fill="white"/>
</mask>
<g mask="url(#mask8_600_83140)">
<path d="M46.3503 99.473C46.3503 99.473 40.6974 96.1855 40.3292 89.8966C39.9609 83.6077 42.2499 84.5358 42.2499 84.5358C42.2499 84.5358 43.8323 79.9055 47.1265 81.031C47.2288 80.5785 47.422 80.1512 47.6947 79.7746C47.9674 79.398 48.3139 79.0799 48.7135 78.8393C49.1131 78.5987 49.5575 78.4406 50.0202 78.3744C50.4828 78.3082 50.9542 78.3354 51.406 78.4542C51.928 77.3648 52.5476 76.324 53.2571 75.3444C55.8845 72.5405 59.3379 72.5899 61.7464 75.4628C63.7368 77.8718 62.4729 78.7405 61.8558 79.2539C61.2388 79.7673 59.3479 78.3654 58.8702 78.7011C58.2471 79.2852 57.7773 80.0114 57.5015 80.8166C57.2258 81.6219 57.1524 82.4817 57.2878 83.3214C57.6261 85.9377 57.7058 86.5991 59.1787 87.5568C60.6516 88.5144 54.7798 100.105 54.7798 100.105" fill="#FBC0A4"/>
<path d="M57.258 86.7867C57.258 86.7867 60.4527 88.7613 61.7564 86.2832C63.0602 83.8052 62.4332 81.6628 64.0853 81.1001C66.5733 80.2511 66.5733 83.1931 65.9264 86.6386C65.2795 90.0842 65.1701 100.075 57.1088 101.448C57.1088 101.448 49.0773 94.8724 57.268 86.7867" fill="#FBC0A4"/>
</g>
<mask id="mask9_600_83140" style="mask-type:luminance" maskUnits="userSpaceOnUse" x="38" y="98" width="21" height="21">
<path d="M44.4969 99.779L43.5813 102.178C43.498 102.385 43.3628 102.566 43.1886 102.706C43.0144 102.846 42.807 102.94 42.5861 102.978C40.9566 103.284 39.4206 103.96 38.0977 104.952C41.8622 109.565 46.3883 113.511 51.4834 116.622C52.0407 116.957 52.608 117.273 53.1753 117.609L55.733 118.952C56.3301 117.964 56.9969 116.78 57.2656 116.256C60.4106 110.047 58.3106 107.371 57.6438 106.137C57.4894 105.86 57.4501 105.534 57.5344 105.229L58.1016 102.741C58.1487 102.554 58.152 102.359 58.1114 102.17C58.0707 101.982 57.9872 101.805 57.8671 101.654C57.7471 101.502 57.5937 101.38 57.4188 101.296C57.2438 101.213 57.0518 101.17 56.8576 101.171C53.1923 101.094 49.5698 100.372 46.159 99.0386C46.0115 98.9884 45.857 98.9618 45.7012 98.9596C45.4413 98.9579 45.1873 99.0356 44.9736 99.1822C44.7599 99.3289 44.5969 99.5372 44.5069 99.779" fill="white"/>
</mask>
<g mask="url(#mask9_600_83140)">
<path d="M60.3754 98.9596H38.0625V118.952H60.3754V98.9596Z" fill="url(#paint3_linear_600_83140)"/>
</g>
<mask id="mask10_600_83140" style="mask-type:luminance" maskUnits="userSpaceOnUse" x="16" y="8" width="128" height="127">
<path d="M143.693 8.15137H16.3047V134.521H143.693V8.15137Z" fill="white"/>
</mask>
<g mask="url(#mask10_600_83140)">
<path d="M52.1812 106.453C45.9412 106.453 43.0451 103.422 42.8958 103.254C42.8446 103.204 42.804 103.144 42.7763 103.078C42.7486 103.012 42.7344 102.941 42.7344 102.869C42.7344 102.798 42.7486 102.727 42.7763 102.661C42.804 102.595 42.8446 102.535 42.8958 102.484C42.946 102.432 43.0062 102.391 43.0729 102.363C43.1396 102.334 43.2114 102.32 43.2839 102.32C43.3565 102.32 43.4282 102.334 43.4949 102.363C43.5616 102.391 43.6219 102.432 43.6721 102.484C43.7218 102.484 47.9615 106.917 57.3265 104.666C57.4612 104.651 57.5967 104.686 57.7075 104.763C57.8183 104.841 57.8969 104.956 57.9286 105.086C57.9604 105.217 57.943 105.355 57.8798 105.474C57.8166 105.592 57.7119 105.684 57.5853 105.732C55.805 106.178 53.9774 106.41 52.1414 106.423" fill="white"/>
</g>
</g>
</g>
<defs>
<linearGradient id="paint0_linear_600_83140" x1="51.4349" y1="105.318" x2="125.022" y2="105.318" gradientUnits="userSpaceOnUse">
<stop stop-color="#FAA22E"/>
<stop offset="0.02" stop-color="#F9992E"/>
<stop offset="0.09" stop-color="#F5742E"/>
<stop offset="0.17" stop-color="#F2552F"/>
<stop offset="0.25" stop-color="#F03D2F"/>
<stop offset="0.34" stop-color="#EE2C2F"/>
<stop offset="0.43" stop-color="#ED222F"/>
<stop offset="0.55" stop-color="#ED1F2F"/>
<stop offset="0.81" stop-color="#B92028"/>
<stop offset="1" stop-color="#B92028"/>
</linearGradient>
<linearGradient id="paint1_linear_600_83140" x1="51.4336" y1="109.899" x2="125.02" y2="109.899" gradientUnits="userSpaceOnUse">
<stop stop-color="#FAA22E"/>
<stop offset="0.02" stop-color="#F9992E"/>
<stop offset="0.09" stop-color="#F5742E"/>
<stop offset="0.17" stop-color="#F2552F"/>
<stop offset="0.25" stop-color="#F03D2F"/>
<stop offset="0.34" stop-color="#EE2C2F"/>
<stop offset="0.43" stop-color="#ED222F"/>
<stop offset="0.55" stop-color="#ED1F2F"/>
<stop offset="0.81" stop-color="#B92028"/>
<stop offset="1" stop-color="#B92028"/>
</linearGradient>
<linearGradient id="paint2_linear_600_83140" x1="99.5737" y1="25.948" x2="124.122" y2="34.8989" gradientUnits="userSpaceOnUse">
<stop stop-color="#FAA22E"/>
<stop offset="0.02" stop-color="#F9992E"/>
<stop offset="0.09" stop-color="#F5742E"/>
<stop offset="0.17" stop-color="#F2552F"/>
<stop offset="0.25" stop-color="#F03D2F"/>
<stop offset="0.34" stop-color="#EE2C2F"/>
<stop offset="0.43" stop-color="#ED222F"/>
<stop offset="0.55" stop-color="#ED1F2F"/>
<stop offset="0.81" stop-color="#B92028"/>
<stop offset="1" stop-color="#B92028"/>
</linearGradient>
<linearGradient id="paint3_linear_600_83140" x1="34.3901" y1="109.543" x2="58.2854" y2="109.543" gradientUnits="userSpaceOnUse">
<stop stop-color="#FAA22E"/>
<stop offset="0.02" stop-color="#F9992E"/>
<stop offset="0.09" stop-color="#F5742E"/>
<stop offset="0.17" stop-color="#F2552F"/>
<stop offset="0.25" stop-color="#F03D2F"/>
<stop offset="0.34" stop-color="#EE2C2F"/>
<stop offset="0.43" stop-color="#ED222F"/>
<stop offset="0.55" stop-color="#ED1F2F"/>
<stop offset="0.81" stop-color="#B92028"/>
<stop offset="1" stop-color="#B92028"/>
</linearGradient>
<clipPath id="clip0_600_83140">
<rect width="127.389" height="126.369" fill="white" transform="translate(16.3047 8.15137)"/>
</clipPath>
</defs>
</svg>