<svg xmlns:xlink="http://www.w3.org/1999/xlink" xmlns="http://www.w3.org/2000/svg" width="128" height="127" viewBox="0 0 128 127" fill="none">
<path d="M56.4846 98.3641C80.9988 98.3641 100.872 78.6504 100.872 54.3323C100.872 30.0141 80.9988 10.3004 56.4846 10.3004C31.9704 10.3004 12.0977 30.0141 12.0977 54.3323C12.0977 78.6504 31.9704 98.3641 56.4846 98.3641Z" fill="#0A1B3F"/>
<path d="M75.3336 45.1606L75.6023 42.1988C75.5976 42.1793 75.5976 42.1591 75.6023 42.1396C75.662 41.8237 76.1596 38.9606 74.4677 37.6574C73.5728 36.9436 72.6209 36.3031 71.6214 35.7421C71.5394 35.7085 71.4514 35.6917 71.3626 35.6928L66.9837 35.3176L64.1771 35.0609C64.055 35.0519 63.9325 35.0745 63.8218 35.1266C63.7111 35.1787 63.616 35.2584 63.5457 35.358C63.4754 35.4575 63.4325 35.5735 63.4211 35.6945C63.4096 35.8155 63.4301 35.9374 63.4805 36.0482L64.824 38.6545C64.8701 38.7427 64.9346 38.8201 65.0131 38.8816L67.3519 40.7377C67.4344 40.8017 67.5301 40.8471 67.6322 40.8705C67.7343 40.8939 67.8403 40.8948 67.9428 40.8731C68.0452 40.8515 68.1417 40.8078 68.2253 40.7452C68.3089 40.6825 68.3777 40.6025 68.4267 40.5106L68.9741 39.4147C69.0273 39.3112 69.1056 39.2223 69.202 39.1562C69.2984 39.0901 69.4099 39.0489 69.5264 39.0361C69.6428 39.0234 69.7607 39.0396 69.8693 39.0833C69.9779 39.127 70.0738 39.1968 70.1485 39.2864L71.9598 41.3399C72.0466 41.4364 72.1039 41.5554 72.1251 41.683C72.1462 41.8107 72.1303 41.9416 72.0792 42.0606L70.9646 44.5781C70.9179 44.6805 70.8968 44.7926 70.9029 44.9048C70.9091 45.017 70.9424 45.1261 70.9999 45.2229C71.0575 45.3197 71.1377 45.4013 71.2337 45.4609C71.3297 45.5205 71.4388 45.5563 71.5517 45.5654L74.5374 45.8418C74.6355 45.8527 74.7348 45.8435 74.8291 45.8145C74.9235 45.7856 75.0107 45.7377 75.0855 45.6737C75.1602 45.6097 75.2209 45.5312 75.2636 45.4429C75.3062 45.3546 75.3301 45.2585 75.3336 45.1606Z" fill="#637BA5"/>
<path d="M60.2089 46.8587C60.5075 46.7501 60.5572 45.6443 60.5473 44.7558C60.5468 44.6222 60.5148 44.4905 60.454 44.3713C60.3932 44.2521 60.3052 44.1486 60.197 44.069C60.0887 43.9894 59.9633 43.936 59.8306 43.913C59.6979 43.89 59.5616 43.898 59.4326 43.9364L56.8251 44.6768C56.6956 44.7236 56.5567 44.7391 56.42 44.7219C56.2832 44.7048 56.1526 44.6555 56.0389 44.5781L52.7746 42.2087V42.7714C52.7627 42.8703 52.7359 42.9668 52.695 43.0577L51.2718 46.0195C51.1325 46.2663 49.8287 48.6357 49.6695 49.0701C49.5102 49.5045 48.0771 50.2252 47.5596 50.5017C47.4361 50.5592 47.3297 50.6477 47.2511 50.7584L45.0915 53.5819C45.003 53.7009 44.8851 53.7953 44.7491 53.8558C44.6131 53.9163 44.4636 53.941 44.3152 53.9275L43.101 53.8189C42.9056 53.798 42.7089 53.8446 42.544 53.9506C42.379 54.0567 42.2559 54.2159 42.1954 54.4014L41.439 56.5832C41.3852 56.7452 41.3801 56.9191 41.4243 57.0839C41.4685 57.2487 41.56 57.3972 41.6878 57.5112L43.7778 59.387L43.8574 59.4759C44.1659 59.8313 46.1265 62.1316 46.3454 61.7959C46.5644 61.4603 49.9083 61.2431 50.3263 61.2135H50.396L54.4366 60.6112C54.5565 60.593 54.6711 60.55 54.7732 60.4851C54.8752 60.4201 54.9624 60.3346 55.029 60.234C55.0956 60.1335 55.1402 60.0202 55.1599 59.9015C55.1796 59.7828 55.1739 59.6614 55.1432 59.545L55.0138 59.002C54.9592 58.8385 54.9592 58.6619 55.0138 58.4985L56.4868 54.4211C56.5073 54.3625 56.5339 54.3063 56.5664 54.2533L57.1834 53.266C57.2476 53.1659 57.2904 53.0538 57.3092 52.9366C57.3281 52.8195 57.3225 52.6997 57.2929 52.5848L56.8848 51.0743C56.8538 50.9345 56.8538 50.7896 56.8848 50.6498L57.1436 49.5144C57.1844 49.3371 57.2822 49.1777 57.4223 49.0603C58.2939 48.2578 59.2254 47.5219 60.2089 46.8587Z" fill="#637BA5"/>
<path d="M17.3747 42.2581L20.8978 45.5654L21.0073 45.6444L25.0778 48.4087C25.2246 48.5076 25.3979 48.5605 25.5754 48.5605C25.7528 48.5605 25.9262 48.5076 26.073 48.4087L27.5161 47.2931C27.6398 47.1992 27.7866 47.1398 27.9412 47.1209C28.0959 47.1021 28.2528 47.1245 28.3958 47.1859C28.5387 47.2472 28.6627 47.3453 28.7547 47.47C28.8467 47.5947 28.9035 47.7416 28.9193 47.8953L29.3174 51.7061C29.3285 51.8645 29.3875 52.0159 29.4866 52.1405L32.0742 55.438C32.1461 55.5329 32.2373 55.6119 32.3418 55.6697C32.4464 55.7275 32.562 55.7629 32.6813 55.7737L34.0248 55.8921C34.1778 55.9048 34.3315 55.8773 34.4704 55.8124C34.6093 55.7476 34.7286 55.6476 34.8163 55.5226C34.904 55.3976 34.957 55.252 34.9701 55.1002C34.9831 54.9485 34.9557 54.796 34.8907 54.658L31.8453 48.4087C31.8228 48.3649 31.8061 48.3185 31.7955 48.2705L31.0292 45.6444C30.9771 45.4646 30.9848 45.2729 31.0513 45.0978C31.1179 44.9228 31.2395 44.7737 31.3983 44.6728C31.5571 44.5718 31.7445 44.5244 31.9326 44.5376C32.1207 44.5508 32.2995 44.6239 32.4424 44.7459L34.5324 46.5526C34.6381 46.645 34.765 46.7104 34.9021 46.7431C35.0391 46.7758 35.1821 46.7748 35.3186 46.7402C37.1984 46.2478 39.0519 45.6613 40.8719 44.9829C44.0467 43.7982 42.6633 43.1861 41.2203 41.1819C39.7772 39.1778 42.8425 38.5459 45.4002 37.5488C47.9579 36.5517 48.2067 36.5616 52.3668 35.7224C56.5268 34.8832 56.7358 32.9383 57.4723 32.9975C58.4775 32.7266 59.4227 32.2711 60.2589 31.6549C60.3648 31.5902 60.4553 31.5036 60.5245 31.401C60.5936 31.2985 60.6396 31.1824 60.6594 31.0606C60.6793 30.9388 60.6724 30.8142 60.6394 30.6953C60.6063 30.5764 60.5478 30.4659 60.4679 30.3714L56.8652 26.0867L54.0487 22.7399C53.937 22.6049 53.869 22.4396 53.8534 22.2656C53.8378 22.0917 53.8755 21.9171 53.9614 21.7647C54.0474 21.6122 54.1777 21.4891 54.3353 21.4112C54.4929 21.3333 54.6704 21.3044 54.8449 21.3281C57.0045 21.644 60.1892 22.1377 61.8114 22.5918C62.9268 22.9149 63.975 23.4332 64.9066 24.1221C65.0307 24.212 65.1768 24.2675 65.3297 24.2829C65.4826 24.2983 65.6369 24.2731 65.7767 24.2097C65.9166 24.1464 66.0369 24.0473 66.1253 23.9226C66.2138 23.7979 66.2672 23.652 66.28 23.5001L66.479 21.3479C66.4939 21.1875 66.4625 21.0262 66.3885 20.8829C66.3145 20.7395 66.2009 20.62 66.061 20.5383L62.8763 18.5638C62.7114 18.4598 62.5864 18.3041 62.5209 18.1215C62.4555 17.9388 62.4536 17.7398 62.5154 17.5559C62.5771 17.372 62.6991 17.2139 62.8619 17.1067C63.0247 16.9996 63.2189 16.9495 63.4137 16.9644C63.9564 17.0134 64.4951 17.0992 65.026 17.2211C66.0909 17.4877 67.8027 14.6049 68.6287 13.045C68.6902 12.9317 68.7253 12.8062 68.7313 12.6776C68.7374 12.5491 68.7142 12.4208 68.6636 12.3024C68.6129 12.1839 68.5361 12.0782 68.4388 11.9932C68.3415 11.9081 68.2261 11.8458 68.1012 11.8109C57.0224 8.82858 45.2096 10.2211 35.1439 15.696C25.0781 21.171 17.5428 30.3023 14.1203 41.1721C14.1057 41.2802 14.1057 41.3897 14.1203 41.4979L14.19 42.4851C14.204 42.6654 14.2744 42.8369 14.3913 42.9756C14.5082 43.1143 14.6658 43.2134 14.8422 43.2591C15.0185 43.3047 15.2049 43.2946 15.3752 43.2302C15.5455 43.1658 15.6913 43.0503 15.7923 42.8998L16.1008 42.4358C16.1676 42.3348 16.2554 42.2491 16.3582 42.1844C16.4611 42.1198 16.5767 42.0776 16.6972 42.0608C16.8178 42.044 16.9406 42.0529 17.0574 42.0869C17.1743 42.1209 17.2824 42.1793 17.3747 42.2581Z" fill="#637BA5"/>
<path d="M62.7727 53.1969C63.4992 53.1969 64.4447 53.4635 64.7631 53.3845C65.7761 52.9811 66.8171 52.6512 67.8782 52.3972C68.1668 52.3972 68.2365 51.8049 68.2265 51.1829C68.2256 51.0527 68.1881 50.9253 68.1184 50.8151C68.0486 50.7048 67.9492 50.616 67.8315 50.5586C67.7137 50.5012 67.5821 50.4775 67.4515 50.4901C67.3209 50.5027 67.1964 50.5512 67.092 50.63C66.9633 50.7294 66.8268 50.8186 66.6839 50.8966C66.3057 51.1039 64.365 51.1631 63.967 51.4889C63.5689 51.8147 61.9765 51.4889 61.0808 51.2816C60.9403 51.2554 60.7951 51.2714 60.6638 51.3277C60.5326 51.384 60.4213 51.478 60.3443 51.5975L59.9662 52.18C59.9034 52.2745 59.8658 52.3832 59.8567 52.4959L59.6576 54.7074L59.5482 55.902C59.5376 55.9766 59.5176 56.0496 59.4885 56.1192L58.6226 58.0937C58.5529 58.2647 58.5529 58.4559 58.6226 58.6268L59.7572 61.5886C59.7663 61.6409 59.7663 61.6943 59.7572 61.7466L59.9562 63.4052C59.976 63.564 60.05 63.7113 60.1658 63.8227C60.2817 63.934 60.4325 64.0027 60.5931 64.0173L61.1803 64.0765C61.3568 64.0919 61.5328 64.0419 61.6743 63.9362C61.8159 63.8305 61.9129 63.6764 61.9466 63.5039L62.2452 61.9342C62.2702 61.8303 62.2702 61.7221 62.2452 61.6182L61.7775 59.851C61.7449 59.7216 61.7503 59.5856 61.793 59.4591C61.8356 59.3325 61.9138 59.2207 62.0183 59.1368C62.1228 59.0528 62.2493 59.0001 62.383 58.985C62.5166 58.9699 62.6518 58.9929 62.7727 59.0514C63.312 59.9059 63.7401 60.8248 64.0466 61.7861C64.0844 61.8886 64.1461 61.9808 64.2267 62.055C64.3073 62.1293 64.4045 62.1836 64.5103 62.2135C64.6161 62.2433 64.7276 62.2479 64.8355 62.2268C64.9435 62.2057 65.0449 62.1596 65.1314 62.0921L65.6489 61.7071C65.7374 61.6423 65.8089 61.5573 65.8574 61.4594C65.9058 61.3615 65.9299 61.2534 65.9275 61.1443V59.387C65.9264 59.2789 65.8997 59.1725 65.8495 59.0765C65.7994 58.9805 65.7273 58.8975 65.6389 58.8342L64.1461 57.7087C64.0715 57.6526 64.0091 57.5823 63.9626 57.5018C63.916 57.4213 63.8863 57.3323 63.8751 57.2402C63.864 57.1481 63.8717 57.0546 63.8977 56.9655C63.9237 56.8764 63.9676 56.7934 64.0267 56.7214L64.6935 55.9316C64.7783 55.8265 64.8313 55.6998 64.8463 55.566C64.8613 55.4322 64.8377 55.297 64.7783 55.176C64.7189 55.055 64.6261 54.9532 64.5106 54.8825C64.3952 54.8118 64.2619 54.775 64.1262 54.7765C64.0229 54.7816 63.9218 54.8079 63.8292 54.8538C63.7367 54.8997 63.6548 54.9641 63.5888 55.0431L62.8025 56.0303C62.7298 56.1244 62.634 56.1983 62.5242 56.2449C62.4144 56.2916 62.2943 56.3095 62.1755 56.2969L60.8818 56.1883C60.5235 56.1883 60.6927 54.2138 60.7325 53.888C60.7723 53.5622 62.0064 53.2463 62.7727 53.1969Z" fill="#637BA5"/>
<path d="M97.8362 61.9835L98.4234 60.4631C98.4587 60.3777 98.4763 60.2861 98.4753 60.1938C98.4743 60.1015 98.4547 60.0103 98.4176 59.9256C98.3805 59.841 98.3267 59.7646 98.2593 59.7009C98.1919 59.6372 98.1124 59.5875 98.0253 59.5549L96.632 59.0217C96.5117 58.9732 96.4067 58.8936 96.3279 58.7912C96.2491 58.6887 96.1995 58.5672 96.1841 58.4393L95.9951 56.7214C95.978 56.545 95.8924 56.3821 95.7562 56.2673C94.4673 55.1921 93.2349 54.052 92.0639 52.8514C91.7853 52.3972 86.3115 52.2393 85.0974 52.2096C84.9442 52.2031 84.7933 52.2483 84.6694 52.338L81.0667 54.9345C80.9291 55.0347 80.7588 55.0804 80.589 55.0628H80.0416C79.8927 55.0498 79.7517 54.9902 79.639 54.8926C79.5263 54.795 79.4478 54.6645 79.4146 54.5198L78.927 52.3479C78.9062 52.2566 78.8669 52.1705 78.8115 52.0947C78.7562 52.019 78.6859 51.9552 78.6049 51.9072C78.524 51.8592 78.434 51.828 78.3406 51.8155C78.2471 51.803 78.152 51.8094 78.0611 51.8345L74.3291 52.8217C74.2042 52.8525 74.0902 52.9166 73.9993 53.007C73.9084 53.0974 73.8441 53.2106 73.8134 53.3346C73.7827 53.4586 73.7867 53.5885 73.8249 53.7104C73.8632 53.8323 73.9343 53.9415 74.0305 54.0262L76.3892 56.1389C76.4789 56.2239 76.5471 56.3288 76.5882 56.445C76.7375 56.8991 77.1157 58.074 77.1853 58.4195C77.255 58.765 83.1567 57.8765 83.5249 57.9061C84.0388 58.1219 84.5236 58.4005 84.968 58.7354C85.0437 58.7901 85.1077 58.8592 85.1562 58.9386C85.2048 59.018 85.2369 59.1062 85.2508 59.1981C85.2647 59.2899 85.2601 59.3836 85.2371 59.4737C85.2142 59.5637 85.1735 59.6484 85.1173 59.7227L82.5894 62.9017C82.5088 63.0025 82.4578 63.1235 82.4419 63.2512C82.4261 63.3789 82.4459 63.5085 82.4994 63.6258C82.5528 63.7431 82.6378 63.8435 82.745 63.916C82.8521 63.9885 82.9774 64.0304 83.1069 64.037L85.7443 64.195L91.009 64.5504C91.3175 64.5504 91.8052 63.8593 92.2232 63.1386C92.2894 63.0207 92.3885 62.9243 92.5087 62.8609C92.6288 62.7975 92.7649 62.7699 92.9005 62.7814C93.036 62.7928 93.1654 62.8429 93.273 62.9255C93.3806 63.0082 93.4619 63.1199 93.507 63.2472L94.0245 64.6787C94.054 64.7653 94.101 64.8449 94.1626 64.9129C94.2242 64.9808 94.2991 65.0355 94.3828 65.0736C95.3084 65.508 98.3637 66.9198 99.0404 66.8902L99.1798 66.3966C98.8321 65.0648 98.3829 63.7612 97.8362 62.4969C97.8017 62.4156 97.784 62.3284 97.784 62.2402C97.784 62.152 97.8017 62.0648 97.8362 61.9835Z" fill="#637BA5"/>
<path d="M86.6401 80.86L86.889 77.6415C86.8986 77.576 86.8986 77.5095 86.889 77.444L85.2966 69.0622L85.0577 71.6686C85.0439 71.8203 84.9813 71.9636 84.8792 72.0773C84.7771 72.1911 84.6408 72.2693 84.4905 72.3004C82.8085 72.646 77.4642 73.7023 76.4491 73.3864C75.8519 73.2087 75.9415 72.2214 76.1804 71.2342C76.211 71.0978 76.2005 70.9555 76.1501 70.825C76.0997 70.6946 76.0116 70.5817 75.897 70.5006C75.7823 70.4195 75.646 70.3737 75.5053 70.369C75.3645 70.3642 75.2255 70.4008 75.1055 70.474L71.2938 72.8533H71.2042L68.6067 74.0281C68.5192 74.0676 68.4241 74.0878 68.328 74.0874L62.078 74.196C61.9474 74.1997 61.8202 74.2384 61.7098 74.3079C61.5995 74.3774 61.5101 74.4752 61.4511 74.5909L58.7839 80.1195C58.7839 80.1195 56.6839 84.0686 56.1266 85.5001C56.0672 85.6594 56.0672 85.8345 56.1266 85.9937L57.6095 89.9428C57.6725 90.1075 57.795 90.2432 57.9531 90.3235C58.1113 90.4038 58.2938 90.4229 58.4654 90.3772C60.3603 89.8566 62.1488 89.0113 63.75 87.8794C66.1585 86.1023 68.139 88.8667 68.4873 89.4491C68.522 89.5044 68.5488 89.5642 68.5669 89.6268L70.0398 94.3756C70.0561 94.4764 70.0943 94.5724 70.1519 94.657C70.2094 94.7416 70.2849 94.8128 70.3731 94.8654C70.4612 94.9181 70.5599 94.951 70.6622 94.9619C70.7645 94.9728 70.868 94.9613 70.9654 94.9284L80.002 91.6803C80.0529 91.6674 80.1004 91.6439 80.1413 91.6112C81.3655 90.851 82.5398 90.0218 83.6843 89.153C83.7921 89.0636 83.8744 88.9479 83.9232 88.8173L86.6103 81.0574C86.6281 80.993 86.6382 80.9267 86.6401 80.86Z" fill="#637BA5"/>
<path d="M27.6412 60.9568C27.6787 61.0314 27.7255 61.1011 27.7806 61.1641C28.3677 61.8256 31.8212 65.6956 32.5377 66.3077C33.2543 66.9198 37.6532 68.5686 38.5091 67.5616C38.7309 67.2341 38.8686 66.8578 38.9103 66.4655C38.9519 66.0732 38.8962 65.6767 38.7479 65.3106C38.7262 65.1931 38.7262 65.0727 38.7479 64.9552L38.9669 62.6055C38.9819 62.4138 38.9324 62.2226 38.8261 62.0618C38.7199 61.901 38.5629 61.7798 38.3797 61.717L35.7025 60.7889C35.5705 60.7414 35.4513 60.664 35.3546 60.5629C35.2579 60.4618 35.1862 60.3398 35.1452 60.2065L34.7571 58.844C34.7071 58.7102 34.6246 58.5907 34.517 58.496C34.4094 58.4013 34.2799 58.3343 34.14 58.301L28.8355 56.4253C28.6878 56.3763 28.5568 56.2874 28.4573 56.1686L26.636 53.9966C26.5062 53.838 26.3219 53.7325 26.1185 53.7004L19.4008 52.4762C19.2839 52.4582 19.1646 52.4641 19.0501 52.4936C18.9357 52.5231 18.8285 52.5755 18.7352 52.6477C18.642 52.7198 18.5646 52.8102 18.5079 52.9131C18.4512 53.0161 18.4164 53.1294 18.4056 53.2463L18.3558 53.7794C18.3366 53.9704 18.3832 54.1623 18.488 54.3236C18.5929 54.485 18.7497 54.6064 18.933 54.6679C20.5751 55.2405 24.8546 56.7412 25.3224 56.8794C25.7901 57.0176 27.3427 60.3052 27.6412 60.9568Z" fill="#637BA5"/>
<path d="M59.6176 69.0424L63.7279 68.2724C63.8903 68.2418 64.0581 68.2574 64.212 68.3174C64.3658 68.3775 64.4994 68.4795 64.5972 68.6117C64.6951 68.7438 64.7532 68.9008 64.765 69.0644C64.7767 69.228 64.7414 69.3915 64.6634 69.5361C64.4205 69.9563 64.2205 70.3994 64.0663 70.859C63.7478 71.8463 66.8529 69.3682 69.2613 67.374C69.4148 67.2509 69.5212 67.0795 69.563 66.8882C69.6049 66.6969 69.5795 66.4971 69.4913 66.322C69.403 66.1469 69.2571 66.007 69.0778 65.9254C68.8984 65.8438 68.6963 65.8254 68.505 65.8733L62.663 67.1864C62.5292 67.2211 62.3887 67.2211 62.255 67.1864L59.6475 66.5348C59.5489 66.5154 59.4475 66.5154 59.3489 66.5348C58.3537 66.6335 53.1288 67.137 52.9297 67.0087C52.7307 66.8803 49.7649 66.6928 48.8593 66.6335C48.6915 66.6233 48.5247 66.6647 48.3816 66.752L46.0826 67.9565C45.9716 68.019 45.8482 68.0567 45.721 68.0669C45.5937 68.0771 45.4658 68.0596 45.3461 68.0157L42.3604 66.9396C42.2491 66.8909 42.1288 66.8657 42.0071 66.8657C41.8855 66.8657 41.7652 66.8909 41.6538 66.9396L40.1112 67.7985C39.9716 67.8713 39.8547 67.9807 39.7731 68.1146C39.6916 68.2486 39.6484 68.4022 39.6484 68.5587C39.6484 68.7152 39.6916 68.8687 39.7731 69.0027C39.8547 69.1367 39.9716 69.246 40.1112 69.3189L41.5543 70.1087C41.7451 70.2031 41.9614 70.2342 42.1714 70.1975L47.7944 68.9437C47.9063 68.9188 48.0221 68.9164 48.1349 68.9368C48.2478 68.9572 48.3553 68.9998 48.4512 69.0622L51.3672 70.8886C51.5008 70.9688 51.654 71.0111 51.8101 71.0111C51.9662 71.0111 52.1194 70.9688 52.253 70.8886L56.6817 68.4402C56.7905 68.3818 56.9104 68.3463 57.0337 68.3361C57.1571 68.3259 57.2812 68.3412 57.3983 68.381L59.1499 68.9832C59.2962 69.0494 59.4592 69.07 59.6176 69.0424Z" fill="#637BA5"/>
<path d="M59.4499 89.9921C55.9766 94.9284 46.3926 98.5023 35.1366 98.5023C20.9248 98.5023 9.40016 92.8651 9.40016 85.9147C9.40016 83.5157 10.7835 81.2746 13.1621 79.3692C13.1987 79.3459 13.2303 79.3156 13.2551 79.2801C13.2799 79.2447 13.2974 79.2047 13.3067 79.1626C13.3159 79.1204 13.3167 79.0768 13.309 79.0344C13.3012 78.9919 13.2851 78.9514 13.2616 78.915C13.2381 78.8787 13.2076 78.8474 13.1719 78.8228C13.1361 78.7982 13.0958 78.7808 13.0533 78.7716C13.0108 78.7625 12.9669 78.7617 12.9241 78.7694C12.8813 78.777 12.8404 78.793 12.8038 78.8163C7.33009 81.7781 3.99609 85.7272 3.99609 89.9921C3.99609 99.2033 19.2529 106.667 38.0725 106.667C56.8922 106.667 72.1191 99.2033 72.1191 89.9921H59.4499Z" fill="#F9A12D"/>
<path d="M125.272 101.119L108.622 85.7667C108.736 85.63 108.839 85.4848 108.931 85.3323L110.772 82.094C111.108 81.4924 111.201 80.7864 111.031 80.1195C110.759 78.6429 109.943 77.3195 108.742 76.407C107.54 75.4945 106.04 75.0583 104.532 75.1832C104.072 75.1893 103.622 75.3101 103.222 75.5344C102.822 75.7587 102.485 76.0793 102.243 76.4667L100.879 78.6288L95.7242 73.88L100.591 67.6702C100.827 67.3617 100.993 67.0059 101.078 66.6275C101.162 66.2491 101.162 65.857 101.079 65.4784H101.158L101.098 61.0456C101.252 60.3591 101.13 59.6401 100.759 59.0411C100.387 58.4421 99.7951 58.0102 99.108 57.837L77.9296 51.5975C77.4552 51.4804 76.9576 51.4928 76.4898 51.6336C76.0219 51.7744 75.6012 52.0383 75.2724 52.3972L64.116 64.3826L59.2195 64.8861L59.6773 64.0765C59.8384 63.7924 59.9305 63.4748 59.946 63.1492C59.9616 62.8235 59.9002 62.4987 59.7668 62.2007C59.1398 60.8087 57.5077 58.617 53.6562 59.3278C53.3693 59.3885 53.0982 59.5075 52.8601 59.6775C52.6219 59.8474 52.422 60.0645 52.2728 60.3151L48.6601 66.0214L23.3815 68.6475L22.1972 67.7689C22.1166 67.7142 22.0228 67.6819 21.9254 67.6753C21.828 67.6687 21.7306 67.6881 21.6433 67.7314C21.556 67.7747 21.482 67.8404 21.4289 67.9216C21.3758 68.0028 21.3455 68.0967 21.3413 68.1934L21.2019 71.8364C21.0625 71.8307 20.9251 71.8712 20.8115 71.9517C20.698 72.0322 20.6147 72.148 20.5749 72.2807C20.5289 72.4417 20.5492 72.6143 20.6313 72.7605C20.7134 72.9067 20.8506 73.0146 21.0128 73.0606L48.5407 81.1068L43.8134 86.1813C43.5687 86.447 43.3801 86.7585 43.2588 87.0977C43.1374 87.4368 43.0857 87.7966 43.1068 88.1558V88.1558V91.6112C43.1565 92.1039 43.3441 92.573 43.6483 92.9655C43.9525 93.358 44.3613 93.6583 44.8285 93.8326L68.3456 102.827C69.4321 103.174 70.5997 103.186 71.693 102.86C72.7863 102.534 73.7536 101.885 74.4663 101L80.8357 92.8749L121.023 105.63C121.085 105.64 121.149 105.64 121.212 105.63C121.346 105.631 121.477 105.589 121.587 105.511C121.696 105.433 121.777 105.323 121.819 105.196C121.852 105.088 121.855 104.973 121.826 104.863C121.798 104.753 121.741 104.653 121.66 104.574L125.272 101.119Z" stroke="white" stroke-width="2.03822" stroke-linecap="round" stroke-linejoin="round"/>
<path d="M108.93 85.3323L110.771 82.094C111.108 81.4924 111.2 80.7864 111.03 80.1195C110.759 78.6429 109.943 77.3195 108.741 76.407C107.54 75.4945 106.039 75.0583 104.531 75.1832C104.072 75.1893 103.621 75.3101 103.221 75.5344C102.821 75.7587 102.485 76.0793 102.242 76.4667L99.8936 80.1886C99.6935 80.5034 99.5603 80.8553 99.5021 81.2229C99.4439 81.5905 99.462 81.966 99.5551 82.3264C99.6483 82.6869 99.8146 83.0247 100.044 83.3191C100.273 83.6136 100.561 83.8585 100.889 84.0389L105.178 86.3985C105.819 86.7488 106.573 86.8333 107.276 86.6335C107.979 86.4337 108.574 85.9658 108.93 85.3323Z" fill="#606060"/>
<path d="M57.8767 67.2851L59.6781 64.0864C59.8392 63.8022 59.9313 63.4847 59.9468 63.159C59.9624 62.8333 59.901 62.5086 59.7676 62.2106C59.1407 60.8185 57.5085 58.6268 53.657 59.3377C53.3701 59.3983 53.099 59.5174 52.8609 59.6873C52.6228 59.8572 52.4228 60.0744 52.2736 60.3249L47.7852 67.4233L55.7469 68.4106C56.1749 68.4573 56.6071 68.3749 56.987 68.1741C57.367 67.9733 57.6771 67.6635 57.8767 67.2851Z" fill="#606060"/>
<path d="M94.6603 72.8928L125.273 101.128L121.213 105.028L78.9258 91.6014L94.6603 72.8928Z" fill="#E0E0E0"/>
<path d="M72.8772 63.4644L23.3848 68.608L21.1953 72.4584L58.4863 82.9135L72.8772 63.4644Z" fill="#E0E0E0"/>
<path d="M21.2031 72.4584L21.3126 68.1934C21.3169 68.0967 21.3471 68.0028 21.4002 67.9216C21.4533 67.8403 21.5274 67.7747 21.6147 67.7314C21.702 67.6881 21.7993 67.6687 21.8967 67.6753C21.9941 67.6819 22.0879 67.7142 22.1685 67.7689L23.3926 68.608L21.2031 72.4584Z" fill="#606060"/>
<path d="M121.215 105.028V99.8647C121.216 99.7712 121.241 99.6796 121.288 99.5985C121.335 99.5175 121.402 99.4499 121.483 99.4022C121.564 99.3545 121.656 99.3285 121.751 99.3265C121.845 99.3245 121.938 99.3466 122.021 99.3908L125.275 101.138L121.215 105.028Z" fill="#606060"/>
<path d="M28.1019 75.1042C28.2154 75.1032 28.3267 75.0726 28.4246 75.0154C28.5224 74.9582 28.6033 74.8765 28.6592 74.7784L30.7293 71.0564L61.412 70.0692C61.5017 70.0804 61.5927 70.0725 61.679 70.0461C61.7654 70.0197 61.8451 69.9754 61.9128 69.9161C61.9806 69.8568 62.0348 69.7839 62.072 69.7022C62.1092 69.6205 62.1284 69.5319 62.1284 69.4423C62.1284 69.3526 62.1092 69.264 62.072 69.1823C62.0348 69.1007 61.9806 69.0277 61.9128 68.9684C61.8451 68.9092 61.7654 68.8648 61.679 68.8384C61.5927 68.812 61.5017 68.8042 61.412 68.8154L30.371 69.8026C30.2602 69.8041 30.1518 69.8351 30.0572 69.8924C29.9627 69.9497 29.8854 70.0312 29.8336 70.1284L27.5446 74.1959C27.504 74.2685 27.4783 74.3483 27.4689 74.4308C27.4595 74.5133 27.4665 74.5968 27.4896 74.6765C27.5127 74.7563 27.5514 74.8307 27.6036 74.8957C27.6557 74.9606 27.7202 75.0147 27.7934 75.0549C27.8912 75.0939 27.9966 75.1108 28.1019 75.1042Z" fill="#606060"/>
<path d="M109.669 101.987C109.774 101.988 109.878 101.962 109.97 101.912C110.062 101.862 110.14 101.789 110.196 101.701L113.948 96.044C114.039 95.9049 114.072 95.7358 114.038 95.5732C114.005 95.4107 113.908 95.2677 113.769 95.1752L90.869 79.9714C90.8 79.9171 90.7206 79.8776 90.6355 79.8553C90.5504 79.8331 90.4616 79.8285 90.3747 79.8419C90.2878 79.8554 90.2046 79.8866 90.1304 79.9335C90.0562 79.9804 89.9926 80.0421 89.9437 80.1146C89.8947 80.1871 89.8614 80.2689 89.8459 80.3548C89.8304 80.4407 89.833 80.5289 89.8535 80.6138C89.8741 80.6986 89.9121 80.7784 89.9653 80.8479C90.0184 80.9175 90.0855 80.9754 90.1623 81.0179L112.515 95.8268L109.121 100.961C109.052 101.055 109.011 101.166 109.003 101.282C108.995 101.399 109.02 101.515 109.075 101.617C109.13 101.72 109.212 101.806 109.314 101.864C109.416 101.923 109.532 101.952 109.649 101.948L109.669 101.987Z" fill="#606060"/>
<path d="M50.4018 81.6399C50.5387 81.639 50.6718 81.5944 50.7811 81.5126C50.8905 81.4308 50.9703 81.3162 51.0089 81.1858C51.0332 81.1067 51.0414 81.0236 51.033 80.9413C51.0246 80.8591 50.9998 80.7793 50.9599 80.7067C50.9201 80.6341 50.866 80.5701 50.801 80.5184C50.7359 80.4667 50.6611 80.4285 50.5809 80.4058L21.3711 71.8463C21.2076 71.803 21.0334 71.8239 20.8851 71.9049C20.7368 71.9858 20.6256 72.1204 20.5749 72.2807C20.5289 72.4417 20.5492 72.6143 20.6313 72.7605C20.7134 72.9067 20.8506 73.0147 21.0128 73.0606L50.2226 81.6103C50.2804 81.6297 50.3408 81.6397 50.4018 81.6399Z" fill="#606060"/>
<path d="M121.216 105.65C121.364 105.645 121.505 105.589 121.616 105.493C121.727 105.396 121.8 105.264 121.823 105.119C121.847 104.975 121.819 104.826 121.745 104.7C121.67 104.573 121.554 104.477 121.415 104.426L79.1283 90.9794C79.0486 90.9541 78.9646 90.9446 78.8812 90.9515C78.7978 90.9585 78.7166 90.9816 78.6422 91.0196C78.5678 91.0577 78.5017 91.1099 78.4476 91.1733C78.3936 91.2367 78.3526 91.31 78.3271 91.3891C78.3016 91.4682 78.2921 91.5515 78.2991 91.6342C78.306 91.7169 78.3294 91.7975 78.3677 91.8713C78.4061 91.9451 78.4587 92.0107 78.5226 92.0643C78.5865 92.1179 78.6604 92.1586 78.7402 92.1838L121.027 105.601C121.087 105.627 121.151 105.644 121.216 105.65Z" fill="#606060"/>
<path d="M99.0693 63.3361L77.9308 54.8358C77.4563 54.7186 76.9588 54.7311 76.4909 54.8719C76.023 55.0127 75.6024 55.2765 75.2735 55.6354L43.8145 89.4294C43.5146 89.7571 43.2998 90.1523 43.1884 90.5809C43.0771 91.0095 43.0727 91.4586 43.1756 91.8892C43.2785 92.3199 43.4856 92.7192 43.779 93.0527C44.0724 93.3861 44.4433 93.6436 44.8595 93.803L68.3468 102.827C69.4333 103.174 70.6008 103.186 71.6941 102.86C72.7874 102.534 73.7547 101.885 74.4674 101L100.592 67.6702C100.879 67.3116 101.071 66.8867 101.148 66.435C101.225 65.9834 101.186 65.5196 101.034 65.087C100.882 64.6544 100.622 64.267 100.279 63.9609C99.9352 63.6547 99.5191 63.4398 99.0693 63.3361Z" fill="black"/>
<path d="M43.0977 88.1459V91.6014L101.159 65.4291L101.099 60.9963" fill="black"/>
<path d="M99.0693 57.7975L77.9308 51.5975C77.4563 51.4804 76.9588 51.4928 76.4909 51.6336C76.023 51.7744 75.6024 52.0383 75.2735 52.3972L43.8145 86.1912C43.5146 86.5189 43.2998 86.9141 43.1884 87.3427C43.0771 87.7713 43.0727 88.2204 43.1756 88.651C43.2785 89.0817 43.4856 89.481 43.779 89.8144C44.0724 90.1479 44.4433 90.4054 44.8595 90.5647L67.889 99.2131C68.8194 99.5598 69.8377 99.6001 70.793 99.3281C71.7484 99.0561 72.5901 98.4861 73.1935 97.7026L100.592 62.0724C100.866 61.7142 101.045 61.2943 101.115 60.8502C101.185 60.4062 101.142 59.9519 100.991 59.5282C100.84 59.1045 100.586 58.7245 100.25 58.4225C99.9148 58.1204 99.509 57.9057 99.0693 57.7975Z" fill="#0A1B3F"/>
<path d="M94.7633 59.6042L78.4317 54.816C78.0652 54.7285 77.6816 54.74 77.3211 54.8494C76.9605 54.9588 76.6361 55.162 76.3816 55.438L48.2068 85.9838C47.9728 86.2357 47.8047 86.5408 47.7172 86.8722C47.6298 87.2036 47.6256 87.5512 47.7052 87.8846C47.7848 88.2179 47.9457 88.5268 48.1737 88.7841C48.4017 89.0414 48.6899 89.2392 49.0129 89.3603L66.7976 96.0342C67.5086 96.3104 68.2905 96.352 69.0272 96.1528C69.764 95.9536 70.4165 95.5243 70.8879 94.9284L95.9377 62.9115C96.1513 62.6353 96.2921 62.3105 96.3473 61.9666C96.4025 61.6228 96.3703 61.2707 96.2537 60.9423C96.1371 60.6139 95.9397 60.3195 95.6795 60.0859C95.4192 59.8522 95.1044 59.6867 94.7633 59.6042Z" fill="#8BC53F"/>
<path d="M95.1082 97.367C95.2146 97.3668 95.3193 97.3405 95.413 97.2906C95.5068 97.2406 95.5867 97.1685 95.6456 97.0806L101.617 88.0966C101.708 87.9547 101.739 87.7832 101.703 87.6189C101.668 87.4546 101.569 87.3107 101.428 87.2179C101.358 87.1723 101.28 87.141 101.198 87.1257C101.116 87.1105 101.032 87.1116 100.95 87.1291C100.869 87.1466 100.791 87.18 100.723 87.2275C100.655 87.2749 100.597 87.3354 100.552 87.4055L94.5807 96.3896C94.5117 96.4837 94.4708 96.5952 94.4625 96.7114C94.4542 96.8275 94.479 96.9436 94.5339 97.0464C94.5889 97.1493 94.6718 97.2348 94.7734 97.2932C94.8749 97.3516 94.9909 97.3806 95.1082 97.3768V97.367Z" fill="#606060"/>
<path d="M40.212 78.4214C40.3026 78.421 40.3921 78.4014 40.4745 78.364C40.5569 78.3265 40.6302 78.272 40.6897 78.2042L47.5368 70.474C47.6484 70.3493 47.7057 70.186 47.6964 70.0195C47.6871 69.8531 47.6118 69.6971 47.4871 69.5854C47.3574 69.4778 47.191 69.4239 47.0223 69.4349C46.8536 69.446 46.6957 69.5211 46.5814 69.6447L39.7343 77.3749C39.624 77.5008 39.5684 77.6649 39.5795 77.8314C39.5907 77.9979 39.6678 78.1532 39.794 78.2635C39.908 78.367 40.0575 78.4235 40.212 78.4214Z" fill="#606060"/>
<path d="M69.56 83.0813C68.9679 83.0764 68.3851 82.9344 67.8581 82.6666C67.1372 82.286 66.5353 81.7166 66.1177 81.0204C65.7001 80.3241 65.4829 79.5277 65.4895 78.7176L65.3402 71.0466C65.3349 70.7704 65.3846 70.4959 65.4863 70.2388C65.5879 69.9816 65.7397 69.7469 65.9328 69.5479C66.126 69.349 66.3568 69.1898 66.612 69.0793C66.8672 68.9688 67.1419 68.9094 67.4202 68.9042C67.9793 68.8988 68.5183 69.1106 68.9219 69.4944C69.3255 69.8781 69.5617 70.4034 69.5799 70.9577L69.7292 78.53L80.7761 69.773C80.9931 69.6012 81.242 69.4735 81.5087 69.3972C81.7754 69.3208 82.0547 69.2973 82.3306 69.328C82.6064 69.3587 82.8735 69.4431 83.1165 69.5761C83.3595 69.7092 83.5737 69.8885 83.7469 70.1037C83.92 70.319 84.0488 70.5659 84.1258 70.8305C84.2027 71.0951 84.2264 71.3721 84.1954 71.6457C84.1645 71.9194 84.0795 72.1843 83.9453 72.4254C83.8112 72.6664 83.6304 72.8789 83.4135 73.0507L71.64 82.3902C71.0401 82.8374 70.3104 83.0799 69.56 83.0813Z" fill="white"/>
<path d="M106.433 30.4998C106.503 30.5491 106.563 30.6182 106.652 30.559C106.742 30.4998 106.722 30.4109 106.652 30.3221C106.547 29.97 106.532 29.5973 106.611 29.2383C106.689 28.8793 106.857 28.5458 107.1 28.2686C108.842 26.1361 110.603 24.0036 112.355 21.8711C112.859 21.2994 113.23 20.624 113.44 19.8934C113.65 19.1628 113.694 18.3952 113.569 17.6456C113.398 16.4424 112.793 15.3414 111.867 14.5456C111.38 14.1211 110.872 13.7361 110.365 13.3313L107.976 11.4061L104.801 8.77015C104.732 8.72079 104.662 8.64181 104.572 8.71091C104.483 8.78002 104.513 8.859 104.572 8.93798C104.671 9.29449 104.681 9.66948 104.601 10.0307C104.522 10.3918 104.355 10.7284 104.115 11.0112C103.925 11.2482 103.726 11.4851 103.527 11.7122L99.4271 16.7077C98.9733 17.2 98.5699 17.7357 98.2229 18.3071C97.8415 18.9851 97.6266 19.7427 97.5959 20.5186C97.5462 20.8822 97.5462 21.2508 97.5959 21.6144C97.7804 22.8408 98.4061 23.9595 99.3574 24.7638C100.253 25.524 101.169 26.2545 102.084 26.9851L103.975 28.4956L106.433 30.4998Z" fill="#F9A12D"/>
<path d="M114.545 43.4526C114.545 43.4526 114.625 43.5217 114.675 43.4526C114.725 43.3835 114.675 43.3638 114.675 43.3144C114.612 43.1035 114.603 42.8804 114.648 42.6651C114.693 42.4498 114.791 42.2489 114.934 42.0803L118.079 38.2596C118.381 37.9183 118.604 37.5144 118.729 37.0772C118.855 36.6401 118.881 36.1806 118.805 35.7323C118.706 35.0189 118.353 34.3641 117.81 33.8861C117.521 33.6393 117.213 33.4023 116.914 33.1555L115.481 32.0103L113.54 30.4405C113.54 30.4405 113.461 30.3616 113.401 30.4405C113.341 30.5195 113.401 30.5294 113.401 30.5788C113.46 30.7907 113.466 31.0136 113.419 31.2285C113.373 31.4434 113.274 31.6439 113.132 31.8128L112.784 32.2374L110.336 35.1991C110.064 35.5054 109.82 35.8359 109.609 36.1864C109.385 36.5966 109.259 37.0527 109.241 37.5192C109.206 37.735 109.206 37.955 109.241 38.1708C109.349 38.9058 109.725 39.5763 110.296 40.0565L111.928 41.3794L113.053 42.2778L114.545 43.4526Z" fill="#F9A12D"/>
</svg>