<svg xmlns:xlink="http://www.w3.org/1999/xlink" xmlns="http://www.w3.org/2000/svg" width="151" height="151" viewBox="0 0 151 151" fill="none">
<g clip-path="url(#clip0_600_83163)">
<mask id="mask0_600_83163" style="mask-type:luminance" maskUnits="userSpaceOnUse" x="18" y="34" width="115" height="95">
<path d="M80.1699 46.171L75.3498 49.9758L70.5296 46.171C70.5296 46.171 50.051 28.9895 31.4382 35.7624C12.8254 42.5353 9.15769 77.1588 51.0113 116.804C51.0113 116.804 60.7522 124.441 68.0555 127.336C68.0555 127.336 72.5555 129.782 79.333 128.31C80.6684 128.09 82.2095 127.555 83.8376 126.828C83.9748 126.769 84.1165 126.704 84.2583 126.636C84.4641 126.54 84.6699 126.444 84.8757 126.343C84.894 126.334 84.9123 126.325 84.9305 126.316C84.9351 126.311 84.9397 126.311 84.9488 126.307C91.8406 122.954 99.6927 116.799 99.6927 116.799C141.546 77.1588 137.879 42.5353 119.266 35.7578C116.202 34.642 113.083 34.1755 110.019 34.1755C94.4565 34.1801 80.1699 46.171 80.1699 46.171Z" fill="white"/>
</mask>
<g mask="url(#mask0_600_83163)">
<path d="M141.536 28.9895H9.15625V129.778H141.536V28.9895Z" fill="url(#paint0_linear_600_83163)"/>
</g>
<mask id="mask1_600_83163" style="mask-type:luminance" maskUnits="userSpaceOnUse" x="0" y="0" width="151" height="151">
<path d="M150.781 0.631348H0.78125V150.631H150.781V0.631348Z" fill="white"/>
</mask>
<g mask="url(#mask1_600_83163)">
<path d="M128.814 51.3386L126.5 50.6435L135.825 34.5185L138.605 35.4332" fill="black"/>
</g>
<mask id="mask2_600_83163" style="mask-type:luminance" maskUnits="userSpaceOnUse" x="0" y="0" width="151" height="151">
<path d="M150.781 0.631348H0.78125V150.631H150.781V0.631348Z" fill="white"/>
</mask>
<g mask="url(#mask2_600_83163)">
<path d="M138.097 35.2091C140.732 36.046 140.69 40.3127 138.006 44.7396C135.321 49.1664 131.009 52.0749 128.375 51.2381C125.741 50.4012 125.782 46.1344 128.466 41.7076C131.151 37.2807 135.463 34.3722 138.097 35.2091Z" fill="black"/>
</g>
<mask id="mask3_600_83163" style="mask-type:luminance" maskUnits="userSpaceOnUse" x="0" y="0" width="151" height="151">
<path d="M150.781 0.631348H0.78125V150.631H150.781V0.631348Z" fill="white"/>
</mask>
<g mask="url(#mask3_600_83163)">
<path d="M136.226 34.6146C138.86 35.4515 138.819 39.7183 136.135 44.1451C133.45 48.5719 129.138 51.4804 126.504 50.6436C123.87 49.8067 123.911 45.5399 126.595 41.1131C129.28 36.6862 133.592 33.7777 136.226 34.6146Z" fill="#FAA22E"/>
</g>
<mask id="mask4_600_83163" style="mask-type:luminance" maskUnits="userSpaceOnUse" x="0" y="0" width="151" height="151">
<path d="M150.781 0.631348H0.78125V150.631H150.781V0.631348Z" fill="white"/>
</mask>
<g mask="url(#mask4_600_83163)">
<path d="M125.202 50.1131C125.101 50.1131 124.996 50.0765 124.918 49.9987C124.795 49.8798 121.936 46.9439 127.671 38.8631C127.804 38.6756 128.06 38.6344 128.243 38.767C128.43 38.8997 128.471 39.1558 128.339 39.3433C123.071 46.7747 125.471 49.3905 125.494 49.418C125.65 49.578 125.65 49.8387 125.494 49.9987C125.417 50.0719 125.307 50.1131 125.202 50.1131Z" fill="black"/>
</g>
<mask id="mask5_600_83163" style="mask-type:luminance" maskUnits="userSpaceOnUse" x="0" y="0" width="151" height="151">
<path d="M150.781 0.631348H0.78125V150.631H150.781V0.631348Z" fill="white"/>
</mask>
<g mask="url(#mask5_600_83163)">
<path d="M128.949 38.4286C128.858 38.4286 128.766 38.3966 128.689 38.3371C128.515 38.1908 128.487 37.9347 128.634 37.7609C128.725 37.6512 130.897 35.0353 133.998 34.2259C134.217 34.171 134.442 34.299 134.501 34.5185C134.556 34.7381 134.428 34.9621 134.204 35.0216C131.368 35.7624 129.288 38.2548 129.265 38.2823C129.187 38.3783 129.068 38.4286 128.949 38.4286Z" fill="black"/>
</g>
<mask id="mask6_600_83163" style="mask-type:luminance" maskUnits="userSpaceOnUse" x="0" y="0" width="151" height="151">
<path d="M150.781 0.631348H0.78125V150.631H150.781V0.631348Z" fill="white"/>
</mask>
<g mask="url(#mask6_600_83163)">
<path d="M128.241 47.607C128.04 47.607 127.853 47.575 127.679 47.5155C127.153 47.328 126.975 46.9164 126.956 46.8707C126.869 46.6603 126.975 46.4225 127.185 46.3356C127.391 46.2533 127.629 46.3494 127.716 46.5506C127.725 46.5643 127.793 46.6878 127.981 46.7472C128.177 46.8112 128.635 46.8433 129.499 46.3768C131.054 45.5353 134.466 41.3737 135.051 39.2929C135.188 38.8128 135.115 38.6298 135.087 38.5841C134.973 38.3875 135.042 38.1359 135.238 38.0216C135.435 37.9073 135.687 37.9759 135.801 38.1725C135.993 38.5018 136.007 38.9408 135.842 39.517C135.197 41.7945 131.594 46.1801 129.888 47.1039C129.266 47.4378 128.717 47.607 128.241 47.607Z" fill="black"/>
</g>
<mask id="mask7_600_83163" style="mask-type:luminance" maskUnits="userSpaceOnUse" x="0" y="0" width="151" height="151">
<path d="M150.781 0.631348H0.78125V150.631H150.781V0.631348Z" fill="white"/>
</mask>
<g mask="url(#mask7_600_83163)">
<path d="M128.905 43.0155C128.841 43.0155 128.777 43.0018 128.713 42.9698C128.512 42.8646 128.434 42.6176 128.539 42.4164C128.617 42.2655 130.492 38.735 133.135 37.6832C133.35 37.6009 133.588 37.7015 133.67 37.9164C133.752 38.1268 133.652 38.3692 133.437 38.4515C131.077 39.389 129.28 42.764 129.266 42.8006C129.198 42.9332 129.056 43.0155 128.905 43.0155Z" fill="black"/>
</g>
<mask id="mask8_600_83163" style="mask-type:luminance" maskUnits="userSpaceOnUse" x="0" y="0" width="151" height="151">
<path d="M150.781 0.631348H0.78125V150.631H150.781V0.631348Z" fill="white"/>
</mask>
<g mask="url(#mask8_600_83163)">
<path d="M78.3594 95.3509C78.3594 95.3509 78.9539 95.5841 79.9691 97.7381C80.8289 99.5582 81.0987 101.612 80.7923 103.601L80.6277 104.657L84.0621 111.307L94.0133 96.5856L83.4265 85.3082" fill="#FBC1A4"/>
</g>
<mask id="mask9_600_83163" style="mask-type:luminance" maskUnits="userSpaceOnUse" x="0" y="0" width="151" height="151">
<path d="M150.781 0.631348H0.78125V150.631H150.781V0.631348Z" fill="white"/>
</mask>
<g mask="url(#mask9_600_83163)">
<path d="M41.481 62.5567C41.481 62.5567 43.0679 69.2975 40.8637 76.9576C38.6594 84.6176 40.9689 97.9576 53.1518 98.3006C65.3347 98.6436 77.385 85.9896 77.385 85.9896L77.2432 85.3997C77.0603 84.6451 76.7768 83.9225 76.3881 83.2503L75.8667 82.3356" fill="#0A1C40"/>
</g>
<mask id="mask10_600_83163" style="mask-type:luminance" maskUnits="userSpaceOnUse" x="0" y="0" width="151" height="151">
<path d="M150.781 0.631348H0.78125V150.631H150.781V0.631348Z" fill="white"/>
</mask>
<g mask="url(#mask10_600_83163)">
<path d="M46.6172 74.4743C46.6172 74.4743 49.416 89.671 61.9236 97.235C74.4312 104.799 79.7178 94.3996 79.7178 94.3996L86.2712 84.2838L87.8763 64.9439L65.6736 48.7411L46.6172 74.4743Z" fill="#FBC1A4"/>
</g>
<mask id="mask11_600_83163" style="mask-type:luminance" maskUnits="userSpaceOnUse" x="0" y="0" width="151" height="151">
<path d="M150.781 0.631348H0.78125V150.631H150.781V0.631348Z" fill="white"/>
</mask>
<g mask="url(#mask11_600_83163)">
<path d="M68.5703 90.174C68.5703 90.174 70.0475 94.5231 72.9468 92.9042C75.8462 91.2853 74.8035 85.8021 73.395 83.4743C73.395 83.4789 71.5017 89.5567 68.5703 90.174Z" fill="#ED1F2F"/>
</g>
<mask id="mask12_600_83163" style="mask-type:luminance" maskUnits="userSpaceOnUse" x="0" y="0" width="151" height="151">
<path d="M150.781 0.631348H0.78125V150.631H150.781V0.631348Z" fill="white"/>
</mask>
<g mask="url(#mask12_600_83163)">
<path d="M73.2557 93.7548C72.3685 94.2121 71.4585 94.2853 70.6216 93.9606C68.7145 93.2289 67.8228 90.7411 67.7267 90.4621C67.6444 90.2198 67.6719 89.9545 67.7953 89.7304C67.9234 89.5109 68.1338 89.3509 68.3853 89.3005C70.3426 88.8844 72.0895 84.6588 72.5423 83.2091C72.6475 82.8752 72.9356 82.6283 73.2877 82.5871C73.6353 82.546 73.9783 82.7106 74.1612 83.0124C75.3091 84.9103 76.1048 88.363 75.4463 90.8509C75.1033 92.1405 74.3899 93.1191 73.3838 93.6816C73.338 93.7091 73.2969 93.732 73.2557 93.7548ZM69.7572 90.6679C70.0911 91.3036 70.617 92.0536 71.2572 92.296C71.4996 92.3874 71.8838 92.4789 72.5057 92.1268C73.0865 91.8021 73.4935 91.2167 73.713 90.3935C74.056 89.0948 73.8731 87.3387 73.4341 85.8524C72.6886 87.5399 71.4447 89.735 69.7572 90.6679Z" fill="#0A1C40"/>
</g>
<mask id="mask13_600_83163" style="mask-type:luminance" maskUnits="userSpaceOnUse" x="0" y="0" width="151" height="151">
<path d="M150.781 0.631348H0.78125V150.631H150.781V0.631348Z" fill="white"/>
</mask>
<g mask="url(#mask13_600_83163)">
<path d="M69.6153 69.3432C69.2175 69.549 68.7236 69.4301 68.4675 69.0505C68.2434 68.7258 67.6123 68.0399 67.0955 68.0079C67.0086 68.0033 66.78 67.985 66.4324 68.3646C66.1077 68.7258 65.5361 68.7579 65.1702 68.424C64.8044 68.0902 64.7815 67.5277 65.1108 67.1618C65.8791 66.3204 66.6839 66.1877 67.2236 66.2243C68.7419 66.3341 69.8257 67.8707 69.9446 68.0444C70.219 68.4515 70.1138 69.0094 69.7068 69.2838C69.6748 69.3112 69.6474 69.3295 69.6153 69.3432Z" fill="#0B1C3F"/>
</g>
<mask id="mask14_600_83163" style="mask-type:luminance" maskUnits="userSpaceOnUse" x="0" y="0" width="151" height="151">
<path d="M150.781 0.631348H0.78125V150.631H150.781V0.631348Z" fill="white"/>
</mask>
<g mask="url(#mask14_600_83163)">
<path d="M64.4717 88.1207C64.4305 88.1436 64.3848 88.1619 64.339 88.1756C61.9244 88.9667 60.0082 88.7701 59.0936 87.6405C58.8467 87.3341 58.0875 86.4012 60.1683 80.5887C60.3329 80.1268 60.8451 79.8798 61.307 80.049C61.7689 80.2137 62.0113 80.7259 61.8467 81.1878C61.0098 83.5247 60.4244 85.9347 60.5342 86.5704C60.9183 86.9271 62.0662 87.0414 63.7857 86.4789C64.2567 86.3234 64.7598 86.5795 64.9107 87.0506C65.0479 87.4713 64.8558 87.9241 64.4717 88.1207Z" fill="#0A1C40"/>
</g>
<mask id="mask15_600_83163" style="mask-type:luminance" maskUnits="userSpaceOnUse" x="0" y="0" width="151" height="151">
<path d="M150.781 0.631348H0.78125V150.631H150.781V0.631348Z" fill="white"/>
</mask>
<g mask="url(#mask15_600_83163)">
<path d="M69.3303 74.5018C69.6367 76.1161 69.1748 77.5612 68.2967 77.7259C67.4233 77.8905 66.4675 76.7152 66.1611 75.1009C65.8547 73.4865 66.3165 72.0414 67.1946 71.8768C68.0726 71.7076 69.0284 72.8875 69.3303 74.5018Z" fill="#0B1C3F"/>
</g>
<mask id="mask16_600_83163" style="mask-type:luminance" maskUnits="userSpaceOnUse" x="0" y="0" width="151" height="151">
<path d="M150.781 0.631348H0.78125V150.631H150.781V0.631348Z" fill="white"/>
</mask>
<g mask="url(#mask16_600_83163)">
<path d="M51.541 76.6969C51.4175 76.7609 51.2757 76.7975 51.1294 76.7975C50.6401 76.7975 50.2422 76.3997 50.2422 75.9057C50.2422 75.6954 50.2788 73.8158 51.4769 72.8737C51.9022 72.5399 52.6431 72.1969 53.7498 72.4667C54.23 72.5856 54.5227 73.0658 54.4083 73.546C54.294 74.0216 53.8093 74.3189 53.3291 74.1999C52.8306 74.0765 52.6477 74.2182 52.5791 74.2731C52.1675 74.5932 52.0303 75.5125 52.0257 75.9057C52.0257 76.2487 51.8291 76.546 51.541 76.6969Z" fill="#0B1C3F"/>
</g>
<mask id="mask17_600_83163" style="mask-type:luminance" maskUnits="userSpaceOnUse" x="0" y="0" width="151" height="151">
<path d="M150.781 0.631348H0.78125V150.631H150.781V0.631348Z" fill="white"/>
</mask>
<g mask="url(#mask17_600_83163)">
<path d="M58.6458 78.796C58.3531 78.9469 57.9873 78.9286 57.7037 78.7228C57.2373 78.3798 56.5742 78.0048 56.0528 78.1832C55.4537 78.3753 55.0742 79.2625 54.9873 79.5506C54.8501 80.0216 54.3516 80.2914 53.8806 80.1588C53.4095 80.0216 53.1351 79.5323 53.2678 79.0612C53.3272 78.8554 53.8943 77.0399 55.472 76.5003C56.4827 76.1573 57.5894 76.4225 58.7647 77.2914C59.1626 77.5841 59.2449 78.142 58.9522 78.5399C58.8699 78.6497 58.7647 78.7365 58.6458 78.796Z" fill="#0B1C3F"/>
</g>
<mask id="mask18_600_83163" style="mask-type:luminance" maskUnits="userSpaceOnUse" x="0" y="0" width="151" height="151">
<path d="M150.781 0.631348H0.78125V150.631H150.781V0.631348Z" fill="white"/>
</mask>
<g mask="url(#mask18_600_83163)">
<path d="M46.6836 74.2594C46.6836 74.2594 48.929 89.3829 61.0388 97.2945C73.1485 105.206 78.7369 95.1039 78.7369 95.1039L85.5693 85.3265L87.8238 66.2563L66.4214 49.4637L46.6836 74.2594Z" fill="#FBC1A4"/>
</g>
<mask id="mask19_600_83163" style="mask-type:luminance" maskUnits="userSpaceOnUse" x="0" y="0" width="151" height="151">
<path d="M150.781 0.631348H0.78125V150.631H150.781V0.631348Z" fill="white"/>
</mask>
<g mask="url(#mask19_600_83163)">
<path d="M67.9141 89.3966C67.9141 89.3966 69.3775 94.2487 72.6336 92.5749C75.8897 90.9012 74.9522 84.8188 73.4888 82.1984C73.4888 82.1984 71.1656 88.8295 67.9141 89.3966Z" fill="#ED1F2F"/>
</g>
<mask id="mask20_600_83163" style="mask-type:luminance" maskUnits="userSpaceOnUse" x="0" y="0" width="151" height="151">
<path d="M150.781 0.631348H0.78125V150.631H150.781V0.631348Z" fill="white"/>
</mask>
<g mask="url(#mask20_600_83163)">
<path d="M71.3084 93.3387C70.9472 93.3387 70.5904 93.2655 70.2475 93.1192C68.3816 92.328 67.5493 89.6298 67.5127 89.5155C67.4807 89.4012 67.4944 89.2823 67.5584 89.1817C67.6179 89.0811 67.7231 89.0125 67.8374 88.9942C70.8145 88.4774 73.0737 82.1298 73.092 82.0658C73.1469 81.9149 73.284 81.8051 73.4441 81.7914C73.6042 81.7777 73.7597 81.86 73.8374 82.0018C74.9715 84.0368 75.6804 87.6725 74.903 90.2426C74.5188 91.5185 73.8145 92.424 72.8084 92.9408C72.3008 93.206 71.7978 93.3387 71.3084 93.3387ZM68.4502 89.6801C68.7337 90.4027 69.438 91.8844 70.5722 92.36C71.1484 92.607 71.7612 92.5567 72.4426 92.2045C73.2383 91.7975 73.8054 91.0521 74.1255 90.0003C74.7337 87.9881 74.313 85.1527 73.5264 83.232C72.7856 85.0109 70.938 88.8432 68.4502 89.6801Z" fill="#0A1C40"/>
</g>
<mask id="mask21_600_83163" style="mask-type:luminance" maskUnits="userSpaceOnUse" x="0" y="0" width="151" height="151">
<path d="M150.781 0.631348H0.78125V150.631H150.781V0.631348Z" fill="white"/>
</mask>
<g mask="url(#mask21_600_83163)">
<path d="M69.2259 69.1786C69.2259 69.1786 67.5658 66.5308 65.8555 68.2868" stroke="#0B1C3F" stroke-width="3.55613" stroke-miterlimit="10" stroke-linecap="round"/>
</g>
<mask id="mask22_600_83163" style="mask-type:luminance" maskUnits="userSpaceOnUse" x="0" y="0" width="151" height="151">
<path d="M150.781 0.631348H0.78125V150.631H150.781V0.631348Z" fill="white"/>
</mask>
<g mask="url(#mask22_600_83163)">
<path d="M61.3133 88.331C60.2295 88.331 59.3972 88.0246 58.9444 87.4255C58.231 86.4789 59.6624 82.578 60.3118 80.9454C60.3941 80.735 60.6365 80.6298 60.8469 80.7167C61.0572 80.799 61.1624 81.0414 61.0755 81.2518C60.0146 83.9225 59.3377 86.5201 59.603 86.9316C60.106 87.5993 61.5877 87.6954 63.3804 87.1786C63.5999 87.1146 63.824 87.2426 63.888 87.4576C63.9521 87.6771 63.824 87.9057 63.6091 87.9652C62.763 88.2121 61.9902 88.331 61.3133 88.331Z" fill="#0A1C40"/>
</g>
<mask id="mask23_600_83163" style="mask-type:luminance" maskUnits="userSpaceOnUse" x="0" y="0" width="151" height="151">
<path d="M150.781 0.631348H0.78125V150.631H150.781V0.631348Z" fill="white"/>
</mask>
<g mask="url(#mask23_600_83163)">
<path d="M69.1392 75.0688C69.3861 76.6786 68.8785 78.0871 68.0096 78.2198C67.1407 78.3524 66.2352 77.1588 65.9882 75.549C65.7413 73.9393 66.2489 72.5307 67.1178 72.3981C67.9913 72.2609 68.8968 73.4591 69.1392 75.0688Z" fill="#0B1C3F"/>
</g>
<mask id="mask24_600_83163" style="mask-type:luminance" maskUnits="userSpaceOnUse" x="0" y="0" width="151" height="151">
<path d="M150.781 0.631348H0.78125V150.631H150.781V0.631348Z" fill="white"/>
</mask>
<g mask="url(#mask24_600_83163)">
<path d="M51.0977 75.828C51.0977 75.828 51.2074 72.7045 53.5672 73.3676" stroke="#0B1C3F" stroke-width="3.55613" stroke-miterlimit="10" stroke-linecap="round"/>
</g>
<mask id="mask25_600_83163" style="mask-type:luminance" maskUnits="userSpaceOnUse" x="0" y="0" width="151" height="151">
<path d="M150.781 0.631348H0.78125V150.631H150.781V0.631348Z" fill="white"/>
</mask>
<g mask="url(#mask25_600_83163)">
<path d="M53.944 79.7015C53.9028 79.7015 53.8571 79.6969 53.8159 79.6832C53.601 79.6146 53.4821 79.3814 53.5507 79.1664C53.5735 79.0978 54.1223 77.4332 55.5034 77.0125C56.354 76.7564 57.3007 77.0307 58.3022 77.8265C58.4806 77.9682 58.508 78.2289 58.3708 78.4027C58.229 78.581 57.9684 78.6131 57.7946 78.4713C57.0126 77.8493 56.3266 77.6253 55.7458 77.799C54.7809 78.0872 54.3373 79.4042 54.3327 79.4179C54.2778 79.5917 54.1177 79.7015 53.944 79.7015Z" fill="#0B1C3F"/>
</g>
<mask id="mask26_600_83163" style="mask-type:luminance" maskUnits="userSpaceOnUse" x="0" y="0" width="151" height="151">
<path d="M150.781 0.631348H0.78125V150.631H150.781V0.631348Z" fill="white"/>
</mask>
<g mask="url(#mask26_600_83163)">
<path d="M79.2663 113.095C79.2526 113.095 79.2389 113.095 79.2252 113.09L74.6611 112.459C74.5697 112.445 74.4874 112.391 74.4416 112.308C74.3959 112.226 74.3913 112.13 74.4325 112.043L75.8319 108.919L71.8212 109.075C71.7115 109.08 71.6291 109.034 71.5697 108.956C71.5102 108.878 71.4965 108.778 71.5285 108.682L73.4767 102.97C73.5316 102.814 73.6962 102.732 73.8517 102.787C74.0072 102.842 74.0895 103.011 74.0346 103.166L72.2282 108.471L76.2846 108.316C76.4081 108.316 76.4858 108.362 76.5453 108.448C76.6002 108.535 76.6139 108.645 76.5682 108.737L75.1368 111.933L79.3075 112.509C79.4676 112.532 79.5819 112.683 79.559 112.843C79.5407 112.985 79.4127 113.095 79.2663 113.095Z" fill="#0A1C40"/>
</g>
<mask id="mask27_600_83163" style="mask-type:luminance" maskUnits="userSpaceOnUse" x="0" y="0" width="151" height="151">
<path d="M150.781 0.631348H0.78125V150.631H150.781V0.631348Z" fill="white"/>
</mask>
<g mask="url(#mask27_600_83163)">
<path d="M89.6247 111.855C89.5333 111.855 89.4464 111.814 89.3869 111.737C89.2909 111.604 89.3137 111.421 89.4464 111.32L96.5897 105.938L93.7223 103.976C93.64 103.921 93.5897 103.82 93.5942 103.72C93.5988 103.619 93.6537 103.523 93.7406 103.473L100.39 99.517L97.6872 95.1222C97.6003 94.9804 97.6461 94.7975 97.7833 94.7152C97.9205 94.6283 98.1034 94.674 98.1903 94.8112L101.048 99.4621C101.09 99.5307 101.103 99.6131 101.085 99.6862C101.067 99.764 101.016 99.8326 100.948 99.8692L94.4403 103.743L97.2665 105.677C97.3442 105.732 97.3945 105.819 97.3945 105.915C97.3991 106.011 97.3534 106.102 97.2756 106.162L89.7985 111.791C89.7482 111.837 89.6842 111.855 89.6247 111.855Z" fill="#0A1C40"/>
</g>
<mask id="mask28_600_83163" style="mask-type:luminance" maskUnits="userSpaceOnUse" x="0" y="0" width="151" height="151">
<path d="M150.781 0.631348H0.78125V150.631H150.781V0.631348Z" fill="white"/>
</mask>
<g mask="url(#mask28_600_83163)">
<path d="M120.875 59.5933C120.784 58.6603 120.642 57.7548 120.455 56.8676C119.732 53.3829 118.374 50.1817 116.924 46.8341C116.536 45.9423 115.237 46.0933 115.058 47.049C114.313 51.0734 113 55.1344 109.543 57.6131C107.11 59.3555 103.872 60.3798 100.822 60.046C97.063 59.6298 94.9685 54.0917 93.066 51.0734C80.3389 30.8829 64.0538 44.7259 64.0538 44.7259C49.4334 40.4454 43.9685 52.7747 38.8968 65.8631C36.002 73.3356 33.1438 76.5872 31.2185 78.0048C30.2581 78.7137 30.6102 80.2091 31.7764 80.4606C34.8953 81.1237 40.8313 80.7625 51.1118 74.8768C61.3008 69.0414 65.2337 62.017 66.7474 57.2564C69.4044 60.8143 73.2733 65.2823 77.8008 68.3737C80.1422 70.267 80.9654 71.8814 80.3572 74.8311C79.6163 78.4439 78.9121 81.7366 80.2429 85.3265C81.4182 88.4957 83.7459 91.203 86.4898 93.0597C89.6499 95.2045 93.2444 95.9728 96.6743 96.0414C103.813 96.1786 110.343 92.6298 114.661 87.0369C120.482 79.5048 121.79 68.8311 120.875 59.5933Z" fill="#0A1C40"/>
</g>
<mask id="mask29_600_83163" style="mask-type:luminance" maskUnits="userSpaceOnUse" x="0" y="0" width="151" height="151">
<path d="M150.781 0.631348H0.78125V150.631H150.781V0.631348Z" fill="white"/>
</mask>
<g mask="url(#mask29_600_83163)">
<path d="M116.101 101.648C116.101 101.648 112.905 103.139 110.637 102.769C108.368 102.398 107.582 99.988 107.582 99.988C107.582 99.988 108.629 99.9103 105.839 99.0368C103.05 98.1633 103.919 96.0414 103.919 96.0414C103.919 96.0414 102.871 97.203 102.35 93.2655C101.829 89.3234 106.795 87.6999 106.795 87.6999C106.795 87.6999 107.316 88.1344 103.48 87.0871C99.6426 86.0399 95.2844 84.1237 95.4582 81.3569C95.6319 78.5902 99.2951 79.2396 99.2951 79.2396L114.469 83.4743C114.469 83.4743 117.698 83.8905 117.784 88.3676C117.784 88.3676 120.574 89.6801 120.313 93.7914C120.313 93.7914 121.873 95.7213 121.137 99.6451C120.4 103.569 116.595 110.287 109.082 109.848C103.992 109.551 100.69 105.06 99.1487 101.365C98.4124 99.5993 98.0786 98.017 98.1426 97.1573C98.3393 94.5002 104.879 91.2716 104.879 91.2716" fill="#FBC0A4"/>
</g>
<mask id="mask30_600_83163" style="mask-type:luminance" maskUnits="userSpaceOnUse" x="0" y="0" width="151" height="151">
<path d="M150.781 0.631348H0.78125V150.631H150.781V0.631348Z" fill="white"/>
</mask>
<g mask="url(#mask30_600_83163)">
<path d="M108.685 79.8249C108.955 78.8509 108.918 77.799 108.484 76.8844C107.263 74.3097 104.56 75.4621 103.536 77.2365C103.49 77.3188 103.444 77.4057 103.399 77.4972C102.21 80.0536 96.6851 89.5384 97.2065 94.1573C97.7278 98.7762 99.5754 102.302 99.5754 102.302L106.801 90.4073L107.761 83.1679L108.685 79.8249Z" fill="#FBC0A4"/>
</g>
<mask id="mask31_600_83163" style="mask-type:luminance" maskUnits="userSpaceOnUse" x="0" y="0" width="151" height="151">
<path d="M150.781 0.631348H0.78125V150.631H150.781V0.631348Z" fill="white"/>
</mask>
<g mask="url(#mask31_600_83163)">
<path d="M103.922 96.4576C103.867 96.4576 103.808 96.4484 103.757 96.421C103.73 96.4073 100.945 95.1085 102.632 90.6085C104.283 86.2045 110.466 86.1542 110.727 86.1542C110.956 86.1542 111.139 86.3371 111.139 86.5658C111.139 86.7945 110.956 86.9774 110.727 86.9774C110.667 86.9774 104.85 87.0323 103.401 90.8966C101.997 94.6375 104.009 95.6253 104.096 95.6664C104.302 95.7624 104.389 96.0048 104.297 96.2106C104.228 96.3661 104.082 96.4576 103.922 96.4576Z" fill="#D57D53"/>
</g>
<mask id="mask32_600_83163" style="mask-type:luminance" maskUnits="userSpaceOnUse" x="0" y="0" width="151" height="151">
<path d="M150.781 0.631348H0.78125V150.631H150.781V0.631348Z" fill="white"/>
</mask>
<g mask="url(#mask32_600_83163)">
<path d="M106.2 100.157C105.761 100.157 105.358 100.048 104.992 99.8326C103.73 99.0872 103.456 97.3311 103.447 97.2579L103.438 97.2122L103.442 97.1664C103.808 92.3875 111.861 90.4347 112.204 90.357C112.428 90.3021 112.648 90.4393 112.698 90.6634C112.748 90.8875 112.611 91.107 112.392 91.1573C112.314 91.1756 104.645 93.0369 104.265 97.1801C104.311 97.4271 104.581 98.639 105.413 99.1283C105.866 99.3936 106.437 99.4027 107.11 99.1512C107.325 99.0734 107.558 99.1786 107.64 99.3936C107.718 99.6085 107.608 99.8417 107.398 99.924C106.973 100.08 106.57 100.157 106.2 100.157Z" fill="#D57D53"/>
</g>
<mask id="mask33_600_83163" style="mask-type:luminance" maskUnits="userSpaceOnUse" x="0" y="0" width="151" height="151">
<path d="M150.781 0.631348H0.78125V150.631H150.781V0.631348Z" fill="white"/>
</mask>
<g mask="url(#mask33_600_83163)">
<path d="M110.219 103.34C109.135 103.34 108.321 103.121 107.736 102.691C107.073 102.197 106.734 101.442 106.734 100.436C106.734 97.985 112.812 96.453 113.503 96.2884C113.722 96.2381 113.946 96.3707 114.001 96.5948C114.056 96.8143 113.919 97.0384 113.699 97.0887C111.326 97.6603 107.562 99.0734 107.562 100.436C107.562 101.173 107.782 101.694 108.23 102.028C109.277 102.805 111.646 102.645 115.277 101.552C115.492 101.483 115.725 101.607 115.789 101.826C115.853 102.046 115.734 102.275 115.515 102.339C113.301 103.006 111.559 103.34 110.219 103.34Z" fill="#D57D53"/>
</g>
<mask id="mask34_600_83163" style="mask-type:luminance" maskUnits="userSpaceOnUse" x="0" y="0" width="151" height="151">
<path d="M150.781 0.631348H0.78125V150.631H150.781V0.631348Z" fill="white"/>
</mask>
<g mask="url(#mask34_600_83163)">
<path d="M112.293 83.2823C112.251 83.2823 112.215 83.2777 112.174 83.264C109.119 82.3585 101.962 80.4149 101.889 80.3966C101.669 80.3371 101.541 80.1131 101.6 79.8936C101.66 79.674 101.884 79.546 102.104 79.6054C102.177 79.6237 109.347 81.5719 112.407 82.482C112.626 82.546 112.75 82.7747 112.686 82.9942C112.636 83.1634 112.471 83.2823 112.293 83.2823Z" fill="#D57D53"/>
</g>
<mask id="mask35_600_83163" style="mask-type:luminance" maskUnits="userSpaceOnUse" x="0" y="0" width="151" height="151">
<path d="M150.781 0.631348H0.78125V150.631H150.781V0.631348Z" fill="white"/>
</mask>
<g mask="url(#mask35_600_83163)">
<path d="M101.292 80.5384C101.292 80.5384 102.07 81.8051 100.131 83.8539C100.131 83.8539 96.9387 82.9027 97.1811 81.1283C97.4189 79.3494 98.3061 79.2122 101.292 80.5384Z" fill="#FDD3C0"/>
</g>
<mask id="mask36_600_83163" style="mask-type:luminance" maskUnits="userSpaceOnUse" x="0" y="0" width="151" height="151">
<path d="M150.781 0.631348H0.78125V150.631H150.781V0.631348Z" fill="white"/>
</mask>
<g mask="url(#mask36_600_83163)">
<path d="M22.9648 111.746L24.003 107.346L66.7667 117.563L65.3307 122.877" fill="black"/>
</g>
<mask id="mask37_600_83163" style="mask-type:luminance" maskUnits="userSpaceOnUse" x="0" y="0" width="151" height="151">
<path d="M150.781 0.631348H0.78125V150.631H150.781V0.631348Z" fill="white"/>
</mask>
<g mask="url(#mask37_600_83163)">
<path d="M65.7366 121.889C64.4424 126.915 53.8509 128.538 42.0704 125.511C30.2945 122.483 21.793 115.953 23.0872 110.927C24.3814 105.901 34.9729 104.278 46.7534 107.305C58.5293 110.333 67.0262 116.858 65.7366 121.889Z" fill="black"/>
</g>
<mask id="mask38_600_83163" style="mask-type:luminance" maskUnits="userSpaceOnUse" x="0" y="0" width="151" height="151">
<path d="M150.781 0.631348H0.78125V150.631H150.781V0.631348Z" fill="white"/>
</mask>
<g mask="url(#mask38_600_83163)">
<path d="M66.6507 118.313C65.3565 123.339 54.765 124.962 42.9845 121.935C31.2086 118.907 22.7071 112.377 24.0013 107.351C25.2955 102.325 35.887 100.701 47.6674 103.729C59.4434 106.756 67.9403 113.287 66.6507 118.313Z" fill="#FAA22E"/>
</g>
<mask id="mask39_600_83163" style="mask-type:luminance" maskUnits="userSpaceOnUse" x="0" y="0" width="151" height="151">
<path d="M150.781 0.631348H0.78125V150.631H150.781V0.631348Z" fill="white"/>
</mask>
<g mask="url(#mask39_600_83163)">
<path d="M53.0821 105.86C53.041 105.86 52.9953 105.855 52.9541 105.842C32.3062 99.1923 26.3017 104.9 26.2422 104.959C26.0822 105.119 25.8215 105.119 25.6614 104.964C25.5014 104.804 25.4968 104.548 25.6568 104.383C25.9038 104.127 31.9815 98.2183 53.2102 105.06C53.4251 105.128 53.544 105.362 53.4754 105.576C53.416 105.746 53.2559 105.86 53.0821 105.86Z" fill="black"/>
</g>
<mask id="mask40_600_83163" style="mask-type:luminance" maskUnits="userSpaceOnUse" x="0" y="0" width="151" height="151">
<path d="M150.781 0.631348H0.78125V150.631H150.781V0.631348Z" fill="white"/>
</mask>
<g mask="url(#mask40_600_83163)">
<path d="M65.9976 114.942C65.8558 114.942 65.714 114.865 65.6363 114.732C62.9015 109.866 55.9594 107.108 55.8863 107.081C55.6759 106.999 55.5707 106.761 55.653 106.546C55.7354 106.336 55.9732 106.23 56.1881 106.313C56.4854 106.427 63.4777 109.208 66.3543 114.325C66.464 114.522 66.3954 114.773 66.1988 114.887C66.1347 114.924 66.0662 114.942 65.9976 114.942Z" fill="black"/>
</g>
<mask id="mask41_600_83163" style="mask-type:luminance" maskUnits="userSpaceOnUse" x="0" y="0" width="151" height="151">
<path d="M150.781 0.631348H0.78125V150.631H150.781V0.631348Z" fill="white"/>
</mask>
<g mask="url(#mask41_600_83163)">
<path d="M54.9894 119.232C49.218 119.232 36.9619 114.279 34.3507 111.778C33.0702 110.552 32.5031 109.427 32.6632 108.439C32.8369 107.378 33.779 106.921 33.8202 106.903C34.026 106.807 34.2729 106.894 34.369 107.099C34.465 107.305 34.3781 107.547 34.1769 107.648C34.1494 107.662 33.5732 107.955 33.4772 108.581C33.372 109.276 33.8705 110.177 34.9269 111.183C37.9909 114.119 53.8369 119.941 56.8735 118.061C57.0656 117.942 57.3217 118.002 57.4406 118.194C57.5595 118.386 57.5001 118.642 57.308 118.761C56.7729 119.09 55.9772 119.232 54.9894 119.232Z" fill="black"/>
</g>
<mask id="mask42_600_83163" style="mask-type:luminance" maskUnits="userSpaceOnUse" x="0" y="0" width="151" height="151">
<path d="M150.781 0.631348H0.78125V150.631H150.781V0.631348Z" fill="white"/>
</mask>
<g mask="url(#mask42_600_83163)">
<path d="M57.2242 114.86C57.1007 114.86 56.9818 114.805 56.8995 114.705C53.7806 110.753 44.6662 108.855 44.5748 108.837C44.3507 108.791 44.2089 108.576 44.2547 108.352C44.3004 108.128 44.5153 107.982 44.7394 108.032C45.1281 108.11 54.2379 110.003 57.5443 114.197C57.6861 114.375 57.6541 114.636 57.4757 114.773C57.4025 114.833 57.3111 114.86 57.2242 114.86Z" fill="black"/>
</g>
<mask id="mask43_600_83163" style="mask-type:luminance" maskUnits="userSpaceOnUse" x="0" y="0" width="151" height="151">
<path d="M150.781 0.631348H0.78125V150.631H150.781V0.631348Z" fill="white"/>
</mask>
<g mask="url(#mask43_600_83163)">
<path d="M90.7098 46.5826C90.6001 46.5826 90.4903 46.5414 90.408 46.4545C90.2525 46.2899 90.2617 46.0292 90.4263 45.8737C90.6138 45.7 95.1229 41.5247 102.568 39.4484C102.788 39.3844 103.012 39.517 103.076 39.732C103.135 39.9515 103.007 40.1801 102.792 40.2396C95.5391 42.2609 91.0391 46.4271 90.9934 46.4728C90.911 46.546 90.8104 46.5826 90.7098 46.5826Z" fill="white"/>
</g>
<mask id="mask44_600_83163" style="mask-type:luminance" maskUnits="userSpaceOnUse" x="0" y="0" width="151" height="151">
<path d="M150.781 0.631348H0.78125V150.631H150.781V0.631348Z" fill="white"/>
</mask>
<g mask="url(#mask44_600_83163)">
<path d="M105.328 39.3524C105.159 39.3524 105.003 39.2472 104.939 39.0826C104.861 38.8676 104.971 38.6344 105.181 38.5566C105.319 38.5063 108.593 37.3173 110.857 37.7701C111.081 37.8158 111.223 38.0307 111.181 38.2548C111.136 38.4789 110.916 38.6207 110.697 38.5795C108.666 38.1725 105.497 39.3204 105.465 39.3295C105.424 39.3432 105.374 39.3524 105.328 39.3524Z" fill="white"/>
</g>
<mask id="mask45_600_83163" style="mask-type:luminance" maskUnits="userSpaceOnUse" x="0" y="0" width="151" height="151">
<path d="M150.781 0.631348H0.78125V150.631H150.781V0.631348Z" fill="white"/>
</mask>
<g mask="url(#mask45_600_83163)">
<path d="M6.72656 46.5597L19.2479 35.7167L37.9476 39.1283L39.5345 59.5612L27.6945 69.6588L10.2479 65.7167L6.72656 46.5597Z" fill="white"/>
</g>
<mask id="mask46_600_83163" style="mask-type:luminance" maskUnits="userSpaceOnUse" x="0" y="0" width="151" height="151">
<path d="M150.781 0.631348H0.78125V150.631H150.781V0.631348Z" fill="white"/>
</mask>
<g mask="url(#mask46_600_83163)">
<path d="M28.4947 70.0704C28.3849 70.0704 28.2706 70.0247 28.1929 69.9378C28.0374 69.7686 28.0511 69.5079 28.2203 69.357L39.1136 59.3966L37.6044 39.9881L26.0389 50.2045C25.8697 50.3555 25.609 50.3372 25.4581 50.1679C25.3072 49.9987 25.3255 49.7381 25.4947 49.5872L37.6776 38.8265C37.7965 38.7259 37.9612 38.6939 38.1029 38.7533C38.2493 38.8128 38.3453 38.9454 38.359 39.1009L39.9459 59.5338C39.9551 59.6619 39.9047 59.7853 39.8133 59.8676L28.7691 69.9606C28.6913 70.0338 28.5907 70.0704 28.4947 70.0704Z" fill="#0A1C40"/>
</g>
<mask id="mask47_600_83163" style="mask-type:luminance" maskUnits="userSpaceOnUse" x="0" y="0" width="151" height="151">
<path d="M150.781 0.631348H0.78125V150.631H150.781V0.631348Z" fill="white"/>
</mask>
<g mask="url(#mask47_600_83163)">
<path d="M27.6947 70.0704C27.6627 70.0704 27.6261 70.0658 27.5941 70.0566L9.38828 65.4881C9.22822 65.4469 9.10475 65.3143 9.08188 65.1496L6.32426 46.6191C6.30597 46.4865 6.3517 46.3493 6.45231 46.2579C6.55292 46.1664 6.69011 46.1298 6.82274 46.1573L23.6977 49.9621C23.9172 50.0124 24.059 50.232 24.0087 50.456C23.9584 50.6755 23.7435 50.8173 23.5148 50.767L7.22517 47.0948L9.85475 64.7563L27.2191 69.1146L25.184 50.3966C25.1611 50.1725 25.3212 49.9667 25.5499 49.9438C25.7785 49.9164 25.9797 50.081 26.0026 50.3097L28.1017 69.6176C28.1154 69.7502 28.0651 69.8829 27.9645 69.9743C27.8868 70.0338 27.7907 70.0704 27.6947 70.0704Z" fill="#0A1C40"/>
</g>
<mask id="mask48_600_83163" style="mask-type:luminance" maskUnits="userSpaceOnUse" x="0" y="0" width="151" height="151">
<path d="M150.781 0.631348H0.78125V150.631H150.781V0.631348Z" fill="white"/>
</mask>
<g mask="url(#mask48_600_83163)">
<path d="M6.72618 46.9713C6.61185 46.9713 6.49752 46.9256 6.41521 46.8295C6.26886 46.6557 6.28716 46.3996 6.45637 46.2487L18.9777 35.4057C19.0737 35.3234 19.1972 35.2914 19.3207 35.3097L38.0204 38.7213C38.2445 38.7625 38.3908 38.9774 38.3497 39.2015C38.3085 39.4256 38.0936 39.5765 37.8695 39.5307L19.3619 36.1512L6.99143 46.8661C6.91826 46.9347 6.82222 46.9713 6.72618 46.9713Z" fill="#0A1C40"/>
</g>
<mask id="mask49_600_83163" style="mask-type:luminance" maskUnits="userSpaceOnUse" x="0" y="0" width="151" height="151">
<path d="M150.781 0.631348H0.78125V150.631H150.781V0.631348Z" fill="white"/>
</mask>
<g mask="url(#mask49_600_83163)">
<path d="M34.6598 66.1146C34.3122 66.1146 34.015 65.8539 33.9784 65.4972L31.8336 44.575L12.361 40.9393C11.9906 40.8707 11.7436 40.5094 11.8122 40.139C11.8808 39.764 12.2421 39.5216 12.6125 39.5902L32.5881 43.3219C32.8854 43.3768 33.1141 43.6237 33.1461 43.9256L35.3412 65.36C35.3778 65.735 35.108 66.0734 34.7284 66.1146C34.7055 66.1146 34.6827 66.1146 34.6598 66.1146Z" fill="#ED1F2F"/>
</g>
<mask id="mask50_600_83163" style="mask-type:luminance" maskUnits="userSpaceOnUse" x="0" y="0" width="151" height="151">
<path d="M150.781 0.631348H0.78125V150.631H150.781V0.631348Z" fill="white"/>
</mask>
<g mask="url(#mask50_600_83163)">
<path d="M17.2072 68.7304C16.8596 68.7304 16.5623 68.4698 16.5258 68.1176L14.3672 48.0506C14.3443 47.8402 14.4221 47.6298 14.5776 47.4789L26.6187 35.9957C26.8931 35.735 27.3276 35.7442 27.5883 36.0185C27.8489 36.2929 27.8398 36.7274 27.5654 36.9881L15.7666 48.2381L17.8931 67.9713C17.9343 68.3463 17.6599 68.6847 17.2849 68.7259C17.2575 68.7304 17.23 68.7304 17.2072 68.7304Z" fill="#ED1F2F"/>
</g>
<mask id="mask51_600_83163" style="mask-type:luminance" maskUnits="userSpaceOnUse" x="0" y="0" width="151" height="151">
<path d="M150.781 0.631348H0.78125V150.631H150.781V0.631348Z" fill="white"/>
</mask>
<g mask="url(#mask51_600_83163)">
<path d="M21.0728 41.8219C20.9996 41.8219 20.931 41.8128 20.8579 41.7899C20.0896 41.5384 13.3533 39.2518 12.4707 36.4119C12.2374 35.6527 12.4021 34.889 12.928 34.3219C13.6002 33.5994 14.7069 33.3295 15.8868 33.5994C17.053 33.8692 19.957 35.1222 21.7268 40.9347C21.7999 41.1771 21.7313 41.4469 21.5484 41.6253C21.4204 41.7533 21.2466 41.8219 21.0728 41.8219ZM15.0042 34.8707C14.492 34.8707 14.1262 35.0491 13.9341 35.2594C13.742 35.4652 13.6917 35.7167 13.7786 36.0094C14.2085 37.3905 17.3914 39.0186 19.957 40.0155C18.3701 35.9042 16.239 35.0994 15.5759 34.9439C15.3746 34.889 15.1826 34.8707 15.0042 34.8707Z" fill="#ED1F2F"/>
</g>
<mask id="mask52_600_83163" style="mask-type:luminance" maskUnits="userSpaceOnUse" x="0" y="0" width="151" height="151">
<path d="M150.781 0.631348H0.78125V150.631H150.781V0.631348Z" fill="white"/>
</mask>
<g mask="url(#mask52_600_83163)">
<path d="M21.4365 41.831C21.3039 41.831 21.1712 41.8265 21.0386 41.8219C20.6819 41.8036 20.4029 41.5201 20.3892 41.1633C20.3846 41.0765 20.1103 32.2731 26.9471 30.7228C28.8267 30.2975 29.7642 30.9103 30.217 31.5048C31.031 32.5612 30.9029 34.3539 29.8877 36.3021C28.4197 39.0963 25.2642 41.831 21.4365 41.831ZM28.1042 31.9576C27.816 31.9576 27.5096 32.0033 27.2444 32.0673C22.4517 33.1557 21.8298 38.5475 21.7612 40.4545C24.8755 40.3036 27.441 38.0079 28.6667 35.671C29.3984 34.2762 29.5813 32.9408 29.124 32.3463C28.8999 32.0536 28.5157 31.9576 28.1042 31.9576Z" fill="#ED1F2F"/>
</g>
<mask id="mask53_600_83163" style="mask-type:luminance" maskUnits="userSpaceOnUse" x="0" y="0" width="151" height="151">
<path d="M150.781 0.631348H0.78125V150.631H150.781V0.631348Z" fill="white"/>
</mask>
<g mask="url(#mask53_600_83163)">
<path d="M115.288 38.9042C115.343 38.95 115.398 39.0048 115.471 38.9591C115.558 38.9088 115.526 38.8311 115.507 38.7579C115.338 38.1176 115.466 37.5368 115.882 37.0292C117.341 35.232 118.805 33.4393 120.273 31.6512C121.128 30.6085 121.484 29.4286 121.283 28.0932C121.128 27.0551 120.648 26.1817 119.861 25.4911C119.454 25.1344 119.029 24.8051 118.608 24.4667C117.945 23.9271 117.277 23.392 116.609 22.8524C115.704 22.1161 114.803 21.3753 113.898 20.6344C113.843 20.5887 113.783 20.5246 113.701 20.5841C113.632 20.6344 113.655 20.7076 113.673 20.7762C113.843 21.421 113.705 21.9972 113.294 22.5185C113.134 22.7198 112.969 22.9164 112.809 23.1131C111.67 24.5124 110.527 25.9073 109.388 27.3067C109.036 27.7411 108.652 28.1527 108.387 28.6512C108.076 29.2365 107.879 29.8493 107.861 30.517C107.829 30.8234 107.843 31.1298 107.893 31.4317C108.067 32.4926 108.547 33.389 109.37 34.0887C110.116 34.7243 110.879 35.3417 111.643 35.9545C112.169 36.3753 112.695 36.8006 113.216 37.2259L115.288 38.9042Z" fill="#FAA22E"/>
</g>
<mask id="mask54_600_83163" style="mask-type:luminance" maskUnits="userSpaceOnUse" x="0" y="0" width="151" height="151">
<path d="M150.781 0.631348H0.78125V150.631H150.781V0.631348Z" fill="white"/>
</mask>
<g mask="url(#mask54_600_83163)">
<path d="M104.542 144.865C104.597 144.91 104.651 144.965 104.725 144.919C104.812 144.869 104.78 144.791 104.761 144.718C104.592 144.078 104.72 143.497 105.136 142.99C106.595 141.192 108.058 139.4 109.526 137.612C110.382 136.569 110.738 135.389 110.537 134.054C110.382 133.016 109.901 132.142 109.115 131.451C108.712 131.095 108.283 130.766 107.862 130.427C107.199 129.887 106.531 129.352 105.863 128.813C104.958 128.077 104.057 127.336 103.151 126.595C103.097 126.549 103.037 126.485 102.955 126.544C102.886 126.595 102.909 126.668 102.927 126.737C103.097 127.381 102.959 127.958 102.548 128.479C102.388 128.68 102.223 128.877 102.063 129.073C100.924 130.473 99.781 131.868 98.6423 133.267C98.2902 133.701 97.906 134.113 97.6408 134.612C97.3298 135.197 97.1332 135.81 97.1149 136.477C97.0829 136.784 97.0966 137.09 97.1469 137.392C97.3207 138.453 97.8009 139.349 98.624 140.049C99.3695 140.685 100.133 141.302 100.897 141.915C101.423 142.336 101.949 142.761 102.47 143.186L104.542 144.865Z" fill="#FAA22E"/>
</g>
<mask id="mask55_600_83163" style="mask-type:luminance" maskUnits="userSpaceOnUse" x="0" y="0" width="151" height="151">
<path d="M150.781 0.631348H0.78125V150.631H150.781V0.631348Z" fill="white"/>
</mask>
<g mask="url(#mask55_600_83163)">
<path d="M9.52955 85.6649C9.56614 85.6923 9.59815 85.7289 9.64845 85.7015C9.70333 85.6695 9.68504 85.6192 9.67132 85.5689C9.56156 85.1481 9.64388 84.7685 9.9137 84.4347C10.8695 83.2594 11.8253 82.0841 12.7856 80.9134C13.3436 80.232 13.5814 79.4591 13.4488 78.5856C13.3481 77.9042 13.0326 77.3371 12.5158 76.8844C12.2506 76.6512 11.9716 76.4362 11.6972 76.2121C11.2628 75.86 10.8238 75.5079 10.3893 75.1557C9.7948 74.671 9.20486 74.1908 8.61492 73.706C8.57833 73.674 8.54175 73.6329 8.48687 73.674C8.44114 73.706 8.45943 73.7564 8.46858 73.7975C8.57833 74.2182 8.48687 74.5978 8.22163 74.9362C8.11644 75.0688 8.01126 75.1969 7.9015 75.3249C7.15608 76.2396 6.40608 77.1542 5.66522 78.0689C5.43199 78.3524 5.18047 78.6222 5.00669 78.9469C4.80547 79.331 4.67284 79.7335 4.6637 80.1679C4.64083 80.3692 4.65455 80.5704 4.68656 80.767C4.80089 81.4621 5.11644 82.0475 5.6515 82.5048C6.14083 82.921 6.63931 83.3234 7.13778 83.7259C7.48077 84.0003 7.82376 84.2792 8.16675 84.5582L9.52955 85.6649Z" fill="#FAA22E"/>
</g>
<mask id="mask56_600_83163" style="mask-type:luminance" maskUnits="userSpaceOnUse" x="0" y="0" width="151" height="151">
<path d="M150.781 0.631348H0.78125V150.631H150.781V0.631348Z" fill="white"/>
</mask>
<g mask="url(#mask56_600_83163)">
<path d="M103.029 23.639C103.07 23.671 103.111 23.7167 103.171 23.6801C103.235 23.6435 103.212 23.5795 103.198 23.5246C103.07 23.0353 103.166 22.5871 103.486 22.1984C104.607 20.8173 105.732 19.4408 106.857 18.0688C107.515 17.2685 107.79 16.3631 107.634 15.3387C107.515 14.5429 107.145 13.8707 106.541 13.3402C106.23 13.0658 105.901 12.8143 105.581 12.5536C105.069 12.142 104.557 11.7304 104.049 11.3143C103.354 10.7472 102.659 10.1801 101.968 9.61305C101.922 9.57647 101.881 9.53074 101.817 9.57189C101.762 9.60848 101.785 9.66793 101.799 9.71824C101.932 10.2121 101.822 10.6557 101.506 11.0536C101.383 11.2091 101.259 11.36 101.131 11.5109C100.253 12.5856 99.3797 13.6557 98.5016 14.7304C98.2318 15.0643 97.9346 15.3798 97.7333 15.764C97.4955 16.2121 97.3446 16.6832 97.3309 17.1954C97.3035 17.4286 97.3172 17.6664 97.3538 17.8996C97.4864 18.7137 97.8568 19.4042 98.4879 19.9393C99.0641 20.4286 99.6449 20.8996 100.235 21.3707C100.637 21.6954 101.04 22.0201 101.442 22.3448L103.029 23.639Z" fill="#FAA22E"/>
</g>
<mask id="mask57_600_83163" style="mask-type:luminance" maskUnits="userSpaceOnUse" x="0" y="0" width="151" height="151">
<path d="M150.781 0.631348H0.78125V150.631H150.781V0.631348Z" fill="white"/>
</mask>
<g mask="url(#mask57_600_83163)">
<path d="M105.23 88.1161C105.193 88.1161 105.157 88.1115 105.12 88.1024C97.3277 85.9576 96.0243 83.9042 95.9054 83.6756C95.7956 83.4743 95.8734 83.2274 96.0746 83.1176C96.2713 83.0124 96.5182 83.081 96.628 83.2777C96.66 83.3234 97.9405 85.2716 105.34 87.3067C105.559 87.3661 105.687 87.5948 105.628 87.8143C105.578 87.9926 105.408 88.1161 105.23 88.1161Z" fill="#D57D53"/>
</g>
<mask id="mask58_600_83163" style="mask-type:luminance" maskUnits="userSpaceOnUse" x="0" y="0" width="151" height="151">
<path d="M150.781 0.631348H0.78125V150.631H150.781V0.631348Z" fill="white"/>
</mask>
<g mask="url(#mask58_600_83163)">
<path d="M112.816 75.828C112.816 75.828 130.771 72.1374 138.605 57.7457L149.443 71.4789C149.443 71.4789 146.173 84.7777 123.152 90.7502L112.816 75.828Z" fill="white"/>
</g>
<mask id="mask59_600_83163" style="mask-type:luminance" maskUnits="userSpaceOnUse" x="0" y="0" width="151" height="151">
<path d="M150.781 0.631348H0.78125V150.631H150.781V0.631348Z" fill="white"/>
</mask>
<g mask="url(#mask59_600_83163)">
<path d="M124.51 84.2655C124.423 84.2655 124.336 84.238 124.258 84.1832L119.763 80.7624C119.584 80.6252 119.548 80.3646 119.685 80.1862C119.822 80.0079 120.078 79.9713 120.261 80.1085L123.673 82.706L122.497 79.3173C122.424 79.1024 122.539 78.8691 122.753 78.7914C122.968 78.7182 123.202 78.8326 123.279 79.0475L124.898 83.7258C124.958 83.8996 124.898 84.0871 124.752 84.1923C124.679 84.238 124.596 84.2655 124.51 84.2655Z" fill="#0A1C40"/>
</g>
<mask id="mask60_600_83163" style="mask-type:luminance" maskUnits="userSpaceOnUse" x="0" y="0" width="151" height="151">
<path d="M150.781 0.631348H0.78125V150.631H150.781V0.631348Z" fill="white"/>
</mask>
<g mask="url(#mask60_600_83163)">
<path d="M127.651 82.6877C127.564 82.6877 127.473 82.674 127.386 82.642C126.906 82.482 125.186 81.3798 124.702 79.985C124.464 79.299 124.551 78.6176 124.949 78.014C124.985 77.9545 125.04 77.9088 125.099 77.8768C125.154 77.8493 126.458 77.1908 127.866 79.4316C128.973 81.1969 128.571 82.0521 128.351 82.3356C128.168 82.5643 127.912 82.6877 127.651 82.6877ZM125.561 78.5856C125.365 78.9423 125.337 79.3127 125.479 79.7152C125.859 80.8036 127.327 81.7548 127.647 81.86C127.665 81.8646 127.688 81.8463 127.702 81.828C127.834 81.6588 127.898 81.0323 127.167 79.8707C126.471 78.764 125.863 78.5444 125.561 78.5856Z" fill="#0A1C40"/>
</g>
<mask id="mask61_600_83163" style="mask-type:luminance" maskUnits="userSpaceOnUse" x="0" y="0" width="151" height="151">
<path d="M150.781 0.631348H0.78125V150.631H150.781V0.631348Z" fill="white"/>
</mask>
<g mask="url(#mask61_600_83163)">
<path d="M131.214 80.4378C130.656 80.4378 130.076 80.1954 129.792 79.985C129.184 79.5369 127.977 77.671 127.839 77.4606C127.716 77.2686 127.771 77.017 127.963 76.8936C128.155 76.7701 128.406 76.825 128.53 77.017C129.01 77.7625 129.911 79.0521 130.277 79.3219C130.565 79.5323 131.269 79.7198 131.516 79.5414C131.663 79.4362 131.644 79.0704 131.475 78.5811C130.798 76.6466 129.623 75.9469 129.609 75.9378C129.413 75.8234 129.344 75.5719 129.458 75.3753C129.573 75.1786 129.82 75.11 130.016 75.2198C130.076 75.2518 131.466 76.0612 132.252 78.3067C132.646 79.4317 132.335 79.9576 132.006 80.2C131.781 80.3692 131.502 80.4378 131.214 80.4378Z" fill="#0A1C40"/>
</g>
<mask id="mask62_600_83163" style="mask-type:luminance" maskUnits="userSpaceOnUse" x="0" y="0" width="151" height="151">
<path d="M150.781 0.631348H0.78125V150.631H150.781V0.631348Z" fill="white"/>
</mask>
<g mask="url(#mask62_600_83163)">
<path d="M134.578 78.2152C133.664 78.2106 132.223 76.7975 131.684 75.6405C131.235 74.6847 131.455 74.1085 131.716 73.7929C132.159 73.2579 132.589 73.1801 132.873 73.2122C133.549 73.2808 133.934 73.9804 133.979 74.0628C134.084 74.264 134.007 74.5109 133.806 74.6207C133.604 74.7259 133.357 74.6527 133.252 74.4515C133.184 74.3234 132.978 74.0536 132.79 74.0353C132.621 74.017 132.447 74.2091 132.351 74.3234C132.141 74.575 132.31 75.0414 132.429 75.2975C132.946 76.3997 134.203 77.3966 134.578 77.3966C134.661 77.3966 134.674 77.3783 134.679 77.3692C134.784 77.2183 134.729 76.6969 134.606 76.3265C134.533 76.1115 134.652 75.8783 134.866 75.8051C135.081 75.732 135.315 75.8509 135.388 76.0658C135.452 76.2625 135.758 77.2777 135.347 77.8494C135.228 78.014 134.995 78.2152 134.578 78.2152Z" fill="#0A1C40"/>
</g>
<mask id="mask63_600_83163" style="mask-type:luminance" maskUnits="userSpaceOnUse" x="0" y="0" width="151" height="151">
<path d="M150.781 0.631348H0.78125V150.631H150.781V0.631348Z" fill="white"/>
</mask>
<g mask="url(#mask63_600_83163)">
<path d="M137.106 76.1207C136.996 76.1207 136.891 76.0795 136.809 75.9927L133.887 72.9423C133.731 72.7777 133.736 72.517 133.9 72.3616C134.065 72.2061 134.326 72.2106 134.481 72.3753L137.403 75.4256C137.559 75.5902 137.554 75.8509 137.39 76.0064C137.307 76.0841 137.207 76.1207 137.106 76.1207Z" fill="#0A1C40"/>
</g>
<mask id="mask64_600_83163" style="mask-type:luminance" maskUnits="userSpaceOnUse" x="0" y="0" width="151" height="151">
<path d="M150.781 0.631348H0.78125V150.631H150.781V0.631348Z" fill="white"/>
</mask>
<g mask="url(#mask64_600_83163)">
<path d="M138.589 74.3783C138.47 74.3783 138.351 74.328 138.269 74.2274L135.653 71.0445C135.507 70.8707 135.534 70.61 135.708 70.4637C135.886 70.3173 136.143 70.3448 136.289 70.5186L138.905 73.7015C139.051 73.8753 139.024 74.1359 138.85 74.2823C138.772 74.3509 138.681 74.3783 138.589 74.3783Z" fill="#0A1C40"/>
</g>
<mask id="mask65_600_83163" style="mask-type:luminance" maskUnits="userSpaceOnUse" x="0" y="0" width="151" height="151">
<path d="M150.781 0.631348H0.78125V150.631H150.781V0.631348Z" fill="white"/>
</mask>
<g mask="url(#mask65_600_83163)">
<path d="M135.644 74.0262C135.525 74.0262 135.411 73.9759 135.329 73.8798C135.183 73.7061 135.201 73.4454 135.375 73.299L136.833 72.0597C137.007 71.9134 137.268 71.9317 137.414 72.1054C137.561 72.2792 137.542 72.5399 137.368 72.6862L135.91 73.9256C135.836 73.9942 135.74 74.0262 135.644 74.0262Z" fill="#0A1C40"/>
</g>
<mask id="mask66_600_83163" style="mask-type:luminance" maskUnits="userSpaceOnUse" x="0" y="0" width="151" height="151">
<path d="M150.781 0.631348H0.78125V150.631H150.781V0.631348Z" fill="white"/>
</mask>
<g mask="url(#mask66_600_83163)">
<path d="M140.079 73.418C140.056 73.418 140.033 73.418 140.006 73.4134C139.828 73.3859 139.361 73.3219 136.764 69.5353C136.649 69.3661 136.672 69.142 136.823 69.0003L138.131 67.7747C138.296 67.6192 138.556 67.6283 138.712 67.793C138.867 67.9576 138.858 68.2183 138.693 68.3738L137.642 69.357C138.547 70.6603 139.59 72.046 140.038 72.4896C140.285 72.2198 140.651 71.7762 140.875 71.4881C141.017 71.3097 141.273 71.2777 141.451 71.4195C141.629 71.5613 141.661 71.8174 141.52 71.9957C141.437 72.1009 140.696 73.043 140.367 73.3128C140.289 73.3814 140.189 73.418 140.079 73.418Z" fill="#0A1C40"/>
</g>
<mask id="mask67_600_83163" style="mask-type:luminance" maskUnits="userSpaceOnUse" x="0" y="0" width="151" height="151">
<path d="M150.781 0.631348H0.78125V150.631H150.781V0.631348Z" fill="white"/>
</mask>
<g mask="url(#mask67_600_83163)">
<path d="M138.38 71.5018C138.284 71.5018 138.183 71.4698 138.105 71.3966C137.936 71.2457 137.922 70.985 138.073 70.8158L139.281 69.4622C139.432 69.2929 139.692 69.2792 139.862 69.4301C140.031 69.5811 140.044 69.8417 139.894 70.0109L138.686 71.3646C138.604 71.4561 138.494 71.5018 138.38 71.5018Z" fill="#0A1C40"/>
</g>
<mask id="mask68_600_83163" style="mask-type:luminance" maskUnits="userSpaceOnUse" x="0" y="0" width="151" height="151">
<path d="M150.781 0.631348H0.78125V150.631H150.781V0.631348Z" fill="white"/>
</mask>
<g mask="url(#mask68_600_83163)">
<path d="M142.249 71.1954C142.13 71.1954 142.012 71.1405 141.929 71.0399L138.833 67.203C138.737 67.0841 138.714 66.9149 138.778 66.7731C138.883 66.5353 139.455 65.3463 140.201 65.1359C140.457 65.0627 140.708 65.1039 140.928 65.2502C141.262 65.4743 141.449 65.8813 141.486 66.4621C141.508 66.8097 141.467 67.2487 141.39 67.6466C142.098 67.5551 143.146 67.7701 144.348 69.1557C144.499 69.3295 144.476 69.5902 144.307 69.7365C144.133 69.8829 143.877 69.8646 143.726 69.6954C142.286 68.0307 141.284 68.4515 141.028 68.6069L142.569 70.5185C142.711 70.6969 142.684 70.953 142.505 71.0948C142.428 71.1679 142.341 71.1954 142.249 71.1954ZM139.638 66.892L140.475 67.9255C140.576 67.6283 140.749 66.8417 140.64 66.2838C140.608 66.11 140.544 65.9819 140.475 65.9316C140.457 65.9179 140.452 65.9179 140.429 65.9225C140.214 65.9911 139.876 66.4393 139.638 66.892Z" fill="#0A1C40"/>
</g>
<mask id="mask69_600_83163" style="mask-type:luminance" maskUnits="userSpaceOnUse" x="0" y="0" width="151" height="151">
<path d="M150.781 0.631348H0.78125V150.631H150.781V0.631348Z" fill="white"/>
</mask>
<g mask="url(#mask69_600_83163)">
<path d="M118.137 77.5612C117.968 77.5612 117.808 77.4561 117.749 77.2823C117.676 77.0673 117.79 76.8341 118.005 76.7609C118.142 76.7152 131.93 71.9179 139.265 62.3097C139.403 62.1268 139.663 62.0948 139.842 62.232C140.025 62.3692 140.057 62.6298 139.919 62.8082C132.429 72.6176 118.412 77.4926 118.275 77.5384C118.224 77.5567 118.183 77.5612 118.137 77.5612Z" fill="#0A1C40"/>
</g>
<mask id="mask70_600_83163" style="mask-type:luminance" maskUnits="userSpaceOnUse" x="0" y="0" width="151" height="151">
<path d="M150.781 0.631348H0.78125V150.631H150.781V0.631348Z" fill="white"/>
</mask>
<g mask="url(#mask70_600_83163)">
<path d="M124.981 87.3295C124.812 87.3295 124.652 87.2244 124.592 87.0506C124.519 86.8356 124.634 86.6024 124.849 86.5292C124.986 86.4835 138.788 81.668 144.568 72.7823C144.692 72.5902 144.948 72.5399 145.135 72.6634C145.327 72.7868 145.377 73.0429 145.254 73.235C139.313 82.3631 125.685 87.1146 125.109 87.3112C125.068 87.3204 125.022 87.3295 124.981 87.3295Z" fill="#0A1C40"/>
</g>
<mask id="mask71_600_83163" style="mask-type:luminance" maskUnits="userSpaceOnUse" x="0" y="0" width="151" height="151">
<path d="M150.781 0.631348H0.78125V150.631H150.781V0.631348Z" fill="white"/>
</mask>
<g mask="url(#mask71_600_83163)">
<path d="M123.147 91.1664C122.969 91.1664 122.804 91.0475 122.749 90.8646C122.69 90.6451 122.813 90.4164 123.033 90.357C142.423 84.8875 148.208 73.2487 148.963 71.543L138.275 57.9972C138.133 57.8189 138.165 57.5582 138.344 57.421C138.522 57.2792 138.783 57.3112 138.92 57.4896L149.758 71.2228C149.85 71.3372 149.873 71.4881 149.822 71.6207C149.772 71.7533 144.531 85.1436 123.257 91.1436C123.225 91.1619 123.184 91.1664 123.147 91.1664Z" fill="#0A1C40"/>
</g>
<mask id="mask72_600_83163" style="mask-type:luminance" maskUnits="userSpaceOnUse" x="0" y="0" width="151" height="151">
<path d="M150.781 0.631348H0.78125V150.631H150.781V0.631348Z" fill="white"/>
</mask>
<g mask="url(#mask72_600_83163)">
<path d="M122.261 110.287C122.124 110.287 121.991 110.218 121.914 110.099C121.79 109.907 121.845 109.651 122.037 109.532C126.693 106.546 124.676 100.711 124.589 100.464C124.511 100.249 124.625 100.015 124.836 99.9377C125.051 99.86 125.284 99.9697 125.362 100.185C125.385 100.253 127.694 106.88 122.481 110.223C122.412 110.264 122.334 110.287 122.261 110.287Z" fill="#0A1C40"/>
</g>
<mask id="mask73_600_83163" style="mask-type:luminance" maskUnits="userSpaceOnUse" x="0" y="0" width="151" height="151">
<path d="M150.781 0.631348H0.78125V150.631H150.781V0.631348Z" fill="white"/>
</mask>
<g mask="url(#mask73_600_83163)">
<path d="M126.39 110.282C126.253 110.282 126.12 110.214 126.042 110.095C125.919 109.903 125.974 109.647 126.166 109.528C129.541 107.36 128.023 103.002 128.009 102.956C127.931 102.741 128.041 102.508 128.256 102.43C128.471 102.352 128.704 102.462 128.782 102.677C128.8 102.727 130.533 107.703 126.61 110.218C126.541 110.259 126.463 110.282 126.39 110.282Z" fill="#0A1C40"/>
</g>
<mask id="mask74_600_83163" style="mask-type:luminance" maskUnits="userSpaceOnUse" x="0" y="0" width="151" height="151">
<path d="M150.781 0.631348H0.78125V150.631H150.781V0.631348Z" fill="white"/>
</mask>
<g mask="url(#mask74_600_83163)">
<path d="M129.486 110.854C129.34 110.854 129.198 110.776 129.125 110.639C129.015 110.438 129.089 110.191 129.29 110.081C131.654 108.787 130.872 105.855 130.836 105.732C130.776 105.512 130.904 105.284 131.119 105.224C131.339 105.165 131.567 105.293 131.627 105.508C131.636 105.544 132.624 109.194 129.683 110.804C129.619 110.84 129.551 110.854 129.486 110.854Z" fill="#0A1C40"/>
</g>
</g>
<defs>
<linearGradient id="paint0_linear_600_83163" x1="18.1457" y1="79.3848" x2="132.547" y2="79.3848" gradientUnits="userSpaceOnUse">
<stop stop-color="#FAA22E"/>
<stop offset="0.0383" stop-color="#F7912F"/>
<stop offset="0.1101" stop-color="#F47730"/>
<stop offset="0.1853" stop-color="#F15F2F"/>
<stop offset="0.2637" stop-color="#EF482F"/>
<stop offset="0.3467" stop-color="#EE342F"/>
<stop offset="0.4374" stop-color="#EE252F"/>
<stop offset="0.5503" stop-color="#ED1F2F"/>
<stop offset="0.8147" stop-color="#B92028"/>
<stop offset="1" stop-color="#B92028"/>
</linearGradient>
<clipPath id="clip0_600_83163">
<rect width="150" height="150" fill="white" transform="translate(0.78125 0.631348)"/>
</clipPath>
</defs>
</svg>